<svg width="0" height="0" class="hidden">
  <symbol fill="none" xmlns="http://www.w3.org/2000/svg" viewBox="0 0 170 92" id="Client5">
    <rect x="0.5" y="0.5" width="169" height="91" rx="3.5" stroke="#AFB1B8"></rect>
    <path d="M58.7569 60.7352C59.0006 61.0114 59.1304 61.3572 59.1236 61.7122C59.136 61.9437 59.0914 62.1749 58.993 62.3885C58.8947 62.6021 58.7451 62.7927 58.5554 62.9463C58.082 63.2736 57.4956 63.4336 56.9037 63.3969H54V57.2055H56.8442C57.4057 57.1713 57.9626 57.3167 58.42 57.6168C58.6036 57.7576 58.7491 57.9355 58.8448 58.1365C58.9406 58.3376 58.984 58.5562 58.9716 58.7753C58.9883 59.1168 58.8712 59.4526 58.6413 59.722C58.4206 59.968 58.1156 60.1385 57.7758 60.2059C58.161 60.2703 58.5087 60.4579 58.7569 60.7352ZM55.3511 59.8006H56.5667C56.843 59.8193 57.1174 59.7463 57.3397 59.5949C57.431 59.5192 57.502 59.4252 57.5473 59.3203C57.5925 59.2154 57.6108 59.1024 57.6007 58.99C57.6093 58.878 57.5906 58.7657 57.5461 58.661C57.5015 58.5564 57.4322 58.4622 57.343 58.3851C57.1141 58.2294 56.8312 58.1553 56.5469 58.1764H55.3511V59.8006ZM57.4587 62.175C57.5562 62.0974 57.6329 62.0003 57.6828 61.8912C57.7326 61.7821 57.7543 61.6639 57.7461 61.5458C57.7535 61.4264 57.7309 61.307 57.6799 61.1969C57.6289 61.0868 57.551 60.9888 57.4521 60.9107C57.2142 60.7492 56.9217 60.6699 56.6262 60.6868H55.3511V62.3897H56.6427C56.9334 62.4051 57.2212 62.3293 57.4587 62.175Z" fill="#AFB1B8"></path>
    <path d="M64.5709 63.3969L62.9886 60.9772H62.394V63.3969H61.033V57.2055H63.6096C64.2591 57.164 64.9012 57.3524 65.4034 57.7318C65.7635 58.0678 65.9808 58.5106 66.0159 58.9803C66.051 59.45 65.9018 59.9158 65.595 60.2937C65.2771 60.6271 64.8428 60.8494 64.3661 60.9228L66.0508 63.3969H64.5709ZM62.394 60.1333H63.5072C64.2802 60.1333 64.6667 59.8208 64.6667 59.1957C64.6746 59.0681 64.6534 58.9403 64.6045 58.8205C64.5556 58.7008 64.48 58.5916 64.3826 58.5C64.1383 58.314 63.8237 58.2238 63.5072 58.249H62.3807L62.394 60.1333Z" fill="#AFB1B8"></path>
    <path d="M72.0102 62.1506H69.2981L68.8191 63.3968H67.392L69.8828 57.2749H71.4255L73.9063 63.3968H72.4793L72.0102 62.1506ZM71.6468 61.213L70.6558 58.5997L69.6648 61.213H71.6468Z" fill="#AFB1B8"></path>
    <path d="M81.3224 63.3969H79.9713L76.9421 59.1866V63.3969H75.5943V57.2054H76.9421L79.9713 61.44V57.2054H81.3224V63.3969Z" fill="#AFB1B8"></path>
    <path d="M89.0326 61.9149C88.7532 62.3823 88.3276 62.7626 87.8103 63.0068C87.2222 63.2788 86.5695 63.4128 85.9109 63.397H83.506V57.2055H85.9109C86.5684 57.1898 87.2202 57.3206 87.8103 57.5866C88.3275 57.8253 88.7536 58.2017 89.0326 58.6664C89.3107 59.17 89.4556 59.7263 89.4556 60.2906C89.4556 60.8549 89.3107 61.4113 89.0326 61.9149ZM87.4866 61.7667C87.8722 61.3554 88.0842 60.8312 88.0842 60.2891C88.0842 59.7471 87.8722 59.2229 87.4866 58.8116C87.0205 58.439 86.4127 58.2499 85.7952 58.2853H84.8571V62.293H85.7952C86.4127 62.3283 87.0205 62.1392 87.4866 61.7667Z" fill="#AFB1B8"></path>
    <path d="M72.8558 22.7667C72.8558 22.7667 90.2945 28.7949 89.9245 37.518V52.2722C89.9245 52.2722 72.4991 46.2411 72.8624 37.518L72.8558 22.7667Z" fill="#AFB1B8"></path>
    <path d="M105.46 48.8181C108.754 46.7428 112.563 45.4574 116.54 45.0796V40.4609C111.958 42.0779 108.071 45.0098 105.46 48.8181Z" fill="#AFB1B8"></path>
    <path d="M103.482 50.2095C106.177 45.2396 110.85 41.4046 116.54 39.4932V26.1847C116.54 26.1847 91.705 34.7717 92.2303 47.1939V68.2001C92.2303 68.2001 93.3369 67.816 95.0778 67.0961C95.0778 66.4247 95.0778 65.7472 95.1571 65.0666C95.6711 59.2996 98.6654 53.9556 103.482 50.2095Z" fill="#AFB1B8"></path>
    <path d="M101.12 58.0131C101.25 56.5563 101.541 55.1152 101.989 53.712C98.9896 56.9471 97.1734 60.9614 96.7956 65.1906C96.7592 65.5899 96.7394 65.9891 96.7295 66.4005C98.14 65.7804 99.7818 65.0061 101.506 64.0957C101.066 62.0948 100.936 60.0472 101.12 58.0131Z" fill="#AFB1B8"></path>
    <path d="M102.107 58.0887C101.942 59.929 102.045 61.7813 102.415 63.5966C109.2 59.8793 116.824 54.1355 116.53 47.1939V46.589C111.682 47.0856 107.147 49.026 103.62 52.112C102.795 54.0244 102.285 56.0387 102.107 58.0887Z" fill="#AFB1B8"></path>
  </symbol>
  <symbol fill="none" xmlns="http://www.w3.org/2000/svg" viewBox="0 0 170 92" id="Client4">
    <rect x="0.5" y="0.5" width="169" height="91" rx="3.5" stroke="#2196F3"></rect>
    <path d="M56.1462 37.1028H56.1433C53.7453 37.1028 51.8013 38.8304 51.8013 40.9615V40.964C51.8013 43.0951 53.7453 44.8227 56.1433 44.8227H56.1462C58.5442 44.8227 60.4882 43.0951 60.4882 40.964V40.9615C60.4882 38.8304 58.5442 37.1028 56.1462 37.1028Z" fill="#2196F3"></path>
    <path d="M88.195 35.8693C88.1882 32.9093 86.8623 30.0722 84.5074 27.979C82.1525 25.8857 78.9604 24.7067 75.6297 24.7V24.7C72.298 24.7053 69.1045 25.8837 66.7484 27.9772C64.3922 30.0706 63.0655 32.9084 63.0587 35.8693V52.1921C63.0587 52.1921 88.1922 49.7044 88.195 35.8718V35.8693Z" fill="#2196F3"></path>
    <path d="M43 57.5495C43.006 59.6091 43.9291 61.5828 45.5676 63.0394C47.2061 64.496 49.4267 65.317 51.7442 65.3231C54.0612 65.317 56.2814 64.4963 57.9197 63.0403C59.5581 61.5843 60.4816 59.6112 60.4884 57.552V46.1943C60.4884 46.1943 43 47.9266 43 57.5495ZM51.7442 59.5844C51.2913 59.5844 50.8486 59.4651 50.472 59.2415C50.0955 59.0179 49.802 58.7001 49.6287 58.3282C49.4554 57.9564 49.41 57.5472 49.4984 57.1525C49.5867 56.7577 49.8048 56.3951 50.125 56.1105C50.4453 55.8259 50.8533 55.6321 51.2975 55.5536C51.7416 55.4751 52.202 55.5154 52.6205 55.6694C53.0389 55.8234 53.3965 56.0843 53.6481 56.4189C53.8997 56.7535 54.034 57.147 54.034 57.5495C54.0351 57.8173 53.9767 58.0828 53.8622 58.3306C53.7476 58.5783 53.5791 58.8036 53.3664 58.9933C53.1536 59.1831 52.9008 59.3337 52.6224 59.4364C52.3441 59.5392 52.0456 59.5921 51.7442 59.5921V59.5844Z" fill="#2196F3"></path>
    <path d="M67.7302 55.9413V60.2069H66.8513V55.9413H67.7302ZM69.4294 57.7635V58.4491H67.4899V57.7635H69.4294ZM69.6345 55.9413V56.6298H67.4899V55.9413H69.6345ZM73.6481 57.9745V58.1766C73.6481 58.5009 73.6042 58.7919 73.5163 59.0497C73.4284 59.3075 73.3044 59.5272 73.1442 59.7089C72.9841 59.8885 72.7927 60.0262 72.57 60.1219C72.3493 60.2177 72.1042 60.2655 71.8347 60.2655C71.5671 60.2655 71.322 60.2177 71.0993 60.1219C70.8786 60.0262 70.6872 59.8885 70.5251 59.7089C70.363 59.5272 70.237 59.3075 70.1472 59.0497C70.0593 58.7919 70.0153 58.5009 70.0153 58.1766V57.9745C70.0153 57.6483 70.0593 57.3573 70.1472 57.1014C70.235 56.8436 70.3591 56.6239 70.5192 56.4423C70.6813 56.2606 70.8727 56.1219 71.0934 56.0262C71.3161 55.9305 71.5612 55.8827 71.8288 55.8827C72.0983 55.8827 72.3434 55.9305 72.5641 56.0262C72.7868 56.1219 72.9782 56.2606 73.1384 56.4423C73.3005 56.6239 73.4255 56.8436 73.5134 57.1014C73.6032 57.3573 73.6481 57.6483 73.6481 57.9745ZM72.7604 58.1766V57.9686C72.7604 57.7421 72.7399 57.5428 72.6989 57.371C72.6579 57.1991 72.5974 57.0546 72.5173 56.9374C72.4372 56.8202 72.3395 56.7323 72.2243 56.6737C72.1091 56.6132 71.9772 56.5829 71.8288 56.5829C71.6804 56.5829 71.5485 56.6132 71.4333 56.6737C71.32 56.7323 71.2233 56.8202 71.1432 56.9374C71.0651 57.0546 71.0056 57.1991 70.9645 57.371C70.9235 57.5428 70.903 57.7421 70.903 57.9686V58.1766C70.903 58.4012 70.9235 58.6005 70.9645 58.7743C71.0056 58.9462 71.0661 59.0917 71.1462 59.2108C71.2263 59.328 71.3239 59.4169 71.4391 59.4774C71.5544 59.538 71.6862 59.5682 71.8347 59.5682C71.9831 59.5682 72.1149 59.538 72.2302 59.4774C72.3454 59.4169 72.4421 59.328 72.5202 59.2108C72.5983 59.0917 72.6579 58.9462 72.6989 58.7743C72.7399 58.6005 72.7604 58.4012 72.7604 58.1766ZM76.5016 59.0907C76.5016 59.0145 76.4899 58.9462 76.4665 58.8856C76.445 58.8231 76.404 58.7665 76.3434 58.7157C76.2829 58.663 76.1979 58.6112 76.0886 58.5604C75.9792 58.5096 75.8376 58.4569 75.6638 58.4022C75.4704 58.3397 75.2868 58.2694 75.113 58.1913C74.9411 58.1132 74.7888 58.0223 74.6559 57.9188C74.5251 57.8134 74.4216 57.6913 74.3454 57.5526C74.2712 57.4139 74.2341 57.2528 74.2341 57.0692C74.2341 56.8915 74.2731 56.7303 74.3513 56.5858C74.4294 56.4393 74.5388 56.3143 74.6794 56.2108C74.82 56.1053 74.986 56.0243 75.1774 55.9677C75.3708 55.911 75.5827 55.8827 75.8132 55.8827C76.1276 55.8827 76.402 55.9393 76.6364 56.0526C76.8708 56.1659 77.0524 56.3212 77.1813 56.5184C77.3122 56.7157 77.3776 56.9413 77.3776 57.1952H76.5046C76.5046 57.0702 76.4782 56.9608 76.4255 56.8671C76.3747 56.7714 76.2966 56.6962 76.1911 56.6415C76.0876 56.5868 75.9567 56.5594 75.7985 56.5594C75.6462 56.5594 75.5192 56.5829 75.4177 56.6298C75.3161 56.6747 75.2399 56.7362 75.1891 56.8143C75.1384 56.8905 75.113 56.9764 75.113 57.0721C75.113 57.1444 75.1306 57.2098 75.1657 57.2684C75.2028 57.327 75.2575 57.3817 75.3298 57.4325C75.402 57.4833 75.4909 57.5311 75.5964 57.576C75.7018 57.621 75.8239 57.6649 75.9626 57.7079C76.195 57.7782 76.3991 57.8573 76.5749 57.9452C76.7526 58.0331 76.9011 58.1317 77.0202 58.2411C77.1393 58.3505 77.2292 58.4745 77.2897 58.6132C77.3503 58.7518 77.3806 58.9091 77.3806 59.0848C77.3806 59.2704 77.3444 59.4364 77.2722 59.5829C77.1999 59.7294 77.0954 59.8534 76.9587 59.955C76.822 60.0565 76.6589 60.1337 76.4694 60.1864C76.28 60.2391 76.0681 60.2655 75.8337 60.2655C75.6227 60.2655 75.4147 60.2382 75.2097 60.1835C75.0046 60.1268 74.8181 60.0419 74.6501 59.9286C74.4841 59.8153 74.3513 59.6708 74.2516 59.495C74.152 59.3192 74.1022 59.1112 74.1022 58.871H74.9841C74.9841 59.0038 75.0046 59.1161 75.0456 59.2079C75.0866 59.2997 75.1442 59.3739 75.2184 59.4305C75.2946 59.4872 75.3845 59.5282 75.488 59.5536C75.5934 59.579 75.7087 59.5917 75.8337 59.5917C75.986 59.5917 76.111 59.5702 76.2087 59.5272C76.3083 59.4843 76.3815 59.4247 76.4284 59.3485C76.4772 59.2723 76.5016 59.1864 76.5016 59.0907ZM79.8854 55.9413V60.2069H79.0095V55.9413H79.8854ZM81.1979 55.9413V56.6298H77.7175V55.9413H81.1979ZM84.5612 59.5214V60.2069H82.2907V59.5214H84.5612ZM82.5778 55.9413V60.2069H81.6989V55.9413H82.5778ZM84.2653 57.6786V58.3466H82.2907V57.6786H84.2653ZM84.5583 55.9413V56.6298H82.2907V55.9413H84.5583ZM85.0739 55.9413H86.6647C86.9909 55.9413 87.2712 55.9901 87.5056 56.0878C87.7419 56.1854 87.9235 56.33 88.0505 56.5214C88.1774 56.7128 88.2409 56.9481 88.2409 57.2274C88.2409 57.4559 88.2018 57.6522 88.1237 57.8163C88.0475 57.9784 87.9391 58.1141 87.7985 58.2235C87.6599 58.3309 87.4968 58.4169 87.3093 58.4813L87.0309 58.6278H85.6481L85.6423 57.9423H86.6706C86.8249 57.9423 86.9528 57.9149 87.0544 57.8602C87.1559 57.8055 87.2321 57.7294 87.2829 57.6317C87.3356 57.5341 87.362 57.4208 87.362 57.2919C87.362 57.1552 87.3366 57.037 87.2858 56.9374C87.235 56.8378 87.1579 56.7616 87.0544 56.7089C86.9509 56.6561 86.821 56.6298 86.6647 56.6298H85.9528V60.2069H85.0739V55.9413ZM87.4587 60.2069L86.486 58.3055L87.4147 58.2997L88.3991 60.1659V60.2069H87.4587ZM92.0729 58.6864H90.986V58.0009H92.0729C92.2409 58.0009 92.3776 57.9735 92.4831 57.9188C92.5886 57.8622 92.6657 57.7841 92.7145 57.6844C92.7634 57.5848 92.7878 57.4725 92.7878 57.3475C92.7878 57.2206 92.7634 57.1024 92.7145 56.993C92.6657 56.8837 92.5886 56.7958 92.4831 56.7294C92.3776 56.663 92.2409 56.6298 92.0729 56.6298H91.2907V60.2069H90.4118V55.9413H92.0729C92.4069 55.9413 92.6931 56.0018 92.9313 56.1229C93.1716 56.2421 93.3552 56.4071 93.4821 56.618C93.6091 56.829 93.6725 57.0702 93.6725 57.3417C93.6725 57.6171 93.6091 57.8553 93.4821 58.0565C93.3552 58.2577 93.1716 58.413 92.9313 58.5223C92.6931 58.6317 92.4069 58.6864 92.0729 58.6864ZM97.1413 59.5214V60.2069H94.8708V59.5214H97.1413ZM95.1579 55.9413V60.2069H94.279V55.9413H95.1579ZM96.8454 57.6786V58.3466H94.8708V57.6786H96.8454ZM97.1384 55.9413V56.6298H94.8708V55.9413H97.1384ZM99.6198 55.9413V60.2069H98.7438V55.9413H99.6198ZM100.932 55.9413V56.6298H97.4518V55.9413H100.932ZM104.296 59.5214V60.2069H102.025V59.5214H104.296ZM102.312 55.9413V60.2069H101.433V55.9413H102.312ZM104 57.6786V58.3466H102.025V57.6786H104ZM104.293 55.9413V56.6298H102.025V55.9413H104.293ZM104.808 55.9413H106.399C106.725 55.9413 107.006 55.9901 107.24 56.0878C107.476 56.1854 107.658 56.33 107.785 56.5214C107.912 56.7128 107.975 56.9481 107.975 57.2274C107.975 57.4559 107.936 57.6522 107.858 57.8163C107.782 57.9784 107.674 58.1141 107.533 58.2235C107.394 58.3309 107.231 58.4169 107.044 58.4813L106.765 58.6278H105.383L105.377 57.9423H106.405C106.559 57.9423 106.687 57.9149 106.789 57.8602C106.89 57.8055 106.966 57.7294 107.017 57.6317C107.07 57.5341 107.096 57.4208 107.096 57.2919C107.096 57.1552 107.071 57.037 107.02 56.9374C106.969 56.8378 106.892 56.7616 106.789 56.7089C106.685 56.6561 106.555 56.6298 106.399 56.6298H105.687V60.2069H104.808V55.9413ZM107.193 60.2069L106.22 58.3055L107.149 58.2997L108.133 60.1659V60.2069H107.193ZM110.873 59.0907C110.873 59.0145 110.861 58.9462 110.838 58.8856C110.816 58.8231 110.775 58.7665 110.715 58.7157C110.654 58.663 110.569 58.6112 110.46 58.5604C110.35 58.5096 110.209 58.4569 110.035 58.4022C109.841 58.3397 109.658 58.2694 109.484 58.1913C109.312 58.1132 109.16 58.0223 109.027 57.9188C108.896 57.8134 108.793 57.6913 108.716 57.5526C108.642 57.4139 108.605 57.2528 108.605 57.0692C108.605 56.8915 108.644 56.7303 108.722 56.5858C108.8 56.4393 108.91 56.3143 109.05 56.2108C109.191 56.1053 109.357 56.0243 109.549 55.9677C109.742 55.911 109.954 55.8827 110.184 55.8827C110.499 55.8827 110.773 55.9393 111.008 56.0526C111.242 56.1659 111.424 56.3212 111.552 56.5184C111.683 56.7157 111.749 56.9413 111.749 57.1952H110.876C110.876 57.0702 110.849 56.9608 110.797 56.8671C110.746 56.7714 110.668 56.6962 110.562 56.6415C110.459 56.5868 110.328 56.5594 110.17 56.5594C110.017 56.5594 109.89 56.5829 109.789 56.6298C109.687 56.6747 109.611 56.7362 109.56 56.8143C109.509 56.8905 109.484 56.9764 109.484 57.0721C109.484 57.1444 109.502 57.2098 109.537 57.2684C109.574 57.327 109.629 57.3817 109.701 57.4325C109.773 57.4833 109.862 57.5311 109.967 57.576C110.073 57.621 110.195 57.6649 110.334 57.7079C110.566 57.7782 110.77 57.8573 110.946 57.9452C111.124 58.0331 111.272 58.1317 111.391 58.2411C111.51 58.3505 111.6 58.4745 111.661 58.6132C111.721 58.7518 111.752 58.9091 111.752 59.0848C111.752 59.2704 111.716 59.4364 111.643 59.5829C111.571 59.7294 111.466 59.8534 111.33 59.955C111.193 60.0565 111.03 60.1337 110.841 60.1864C110.651 60.2391 110.439 60.2655 110.205 60.2655C109.994 60.2655 109.786 60.2382 109.581 60.1835C109.376 60.1268 109.189 60.0419 109.021 59.9286C108.855 59.8153 108.722 59.6708 108.623 59.495C108.523 59.3192 108.473 59.1112 108.473 58.871H109.355C109.355 59.0038 109.376 59.1161 109.417 59.2079C109.458 59.2997 109.515 59.3739 109.59 59.4305C109.666 59.4872 109.756 59.5282 109.859 59.5536C109.965 59.579 110.08 59.5917 110.205 59.5917C110.357 59.5917 110.482 59.5702 110.58 59.5272C110.679 59.4843 110.753 59.4247 110.799 59.3485C110.848 59.2723 110.873 59.1864 110.873 59.0907Z" fill="#2196F3"></path>
  </symbol>
  <symbol fill="none" xmlns="http://www.w3.org/2000/svg" viewBox="0 0 178 100" id="Client3">
    <g filter="url(#filter0_d_2286_1005)">
      <rect x="4.5" y="0.5" width="169" height="91" rx="3.5" stroke="#AFB1B8"></rect>
      <path d="M72.4063 65.1014C72.4222 65.1018 72.4379 65.1049 72.4524 65.1106C72.4669 65.1163 72.4799 65.1245 72.4908 65.1346L72.7089 65.3431C72.5396 65.5118 72.3304 65.6468 72.0955 65.7388C71.8204 65.8391 71.5239 65.8875 71.2257 65.8809C70.9455 65.8859 70.6671 65.8408 70.4078 65.7482C70.1739 65.6632 69.9638 65.5356 69.7916 65.3739C69.6159 65.2062 69.4805 65.0096 69.3935 64.7958C69.2982 64.5574 69.2512 64.3065 69.2545 64.0542C69.2506 63.8003 69.3015 63.548 69.4044 63.3103C69.4997 63.0951 69.6433 62.8986 69.827 62.7322C70.0132 62.5691 70.2359 62.4408 70.4814 62.3555C70.7499 62.265 71.0359 62.22 71.3239 62.2228C71.5914 62.2172 71.8575 62.2582 72.1064 62.3436C72.3223 62.425 72.5206 62.538 72.6926 62.6777L72.5099 62.9004C72.4973 62.9161 72.4816 62.9297 72.4635 62.9407C72.442 62.9535 72.4159 62.9594 72.3899 62.9573C72.3616 62.9556 72.3343 62.9474 72.3109 62.9336L72.2127 62.8743L72.0764 62.7985C72.0175 62.7704 71.9565 62.7458 71.8937 62.7251C71.8128 62.6999 71.7299 62.6801 71.6456 62.6659C71.5386 62.6487 71.4299 62.6408 71.3211 62.6422C71.1138 62.6399 70.908 62.6737 70.7159 62.7417C70.5367 62.8046 70.375 62.8999 70.2415 63.0212C70.1055 63.1503 70.0007 63.3018 69.9334 63.4667C69.8566 63.6553 69.8187 63.8542 69.8216 64.0542C69.8183 64.2574 69.8561 64.4595 69.9334 64.6513C69.9999 64.8147 70.1027 64.9653 70.236 65.0943C70.3609 65.2146 70.5157 65.3086 70.6886 65.3692C70.8666 65.4333 71.0576 65.4655 71.2503 65.4639C71.3615 65.4654 71.4728 65.4591 71.5829 65.445C71.7627 65.4259 71.9351 65.3716 72.0873 65.2862C72.1636 65.2425 72.2356 65.1934 72.3027 65.1393C72.3307 65.1161 72.3676 65.1026 72.4063 65.1014Z" fill="#AFB1B8"></path>
      <path d="M78.7044 64.0538C78.7078 64.3052 78.6579 64.5549 78.5571 64.7906C78.4683 65.0043 78.3283 65.1993 78.1465 65.3626C77.9646 65.526 77.745 65.654 77.502 65.7382C76.9682 65.9151 76.3781 65.9151 75.8443 65.7382C75.603 65.6527 75.3848 65.5244 75.2036 65.3615C75.0219 65.1952 74.8809 64.9986 74.7892 64.7835C74.5928 64.3063 74.5928 63.7847 74.7892 63.3076C74.8822 63.0923 75.023 62.8951 75.2036 62.7271C75.3863 62.5694 75.6044 62.446 75.8443 62.3647C76.3775 62.1846 76.9689 62.1846 77.502 62.3647C77.7442 62.4502 77.9633 62.5784 78.1455 62.7414C78.325 62.906 78.4649 63.1001 78.5571 63.3123C78.6582 63.5495 78.7081 63.8009 78.7044 64.0538ZM78.1318 64.0538C78.1361 63.8527 78.1011 63.6525 78.0282 63.4615C77.9671 63.298 77.8678 63.1472 77.7365 63.0185C77.6087 62.8968 77.4513 62.8013 77.2757 62.739C76.8879 62.6095 76.4585 62.6095 76.0706 62.739C75.8951 62.8013 75.7377 62.8968 75.6099 63.0185C75.4767 63.1464 75.3764 63.2974 75.3154 63.4615C75.1767 63.8472 75.1767 64.2604 75.3154 64.6461C75.377 64.81 75.4773 64.9609 75.6099 65.0891C75.7379 65.2101 75.8953 65.3048 76.0706 65.3663C76.4592 65.4925 76.8872 65.4925 77.2757 65.3663C77.4511 65.3048 77.6085 65.2101 77.7365 65.0891C77.8672 64.9601 77.9665 64.8094 78.0282 64.6461C78.1014 64.4552 78.1364 64.2549 78.1318 64.0538Z" fill="#AFB1B8"></path>
      <path d="M83.0013 64.6747L83.0586 64.8074C83.0804 64.76 83.0995 64.7173 83.1213 64.6747C83.1421 64.6302 83.1657 64.5867 83.1922 64.5444L84.5854 62.3438C84.6127 62.3059 84.6372 62.2823 84.6645 62.2751C84.7015 62.2653 84.7403 62.2613 84.779 62.2633H85.1907V65.8425H84.7026V63.2108C84.7026 63.1776 84.7026 63.1397 84.7026 63.0995C84.7 63.0585 84.7 63.0173 84.7026 62.9763L83.3012 65.2077C83.2834 65.2411 83.255 65.2694 83.2192 65.2891C83.1834 65.3089 83.1418 65.3192 83.0995 65.319H83.0204C82.9779 65.3195 82.9362 65.3093 82.9004 65.2895C82.8646 65.2697 82.8362 65.2413 82.8186 65.2077L81.3763 62.9621C81.3763 63.0047 81.3763 63.0474 81.3763 63.09C81.3763 63.1326 81.3763 63.1705 81.3763 63.2037V65.8354H80.9047V62.2633H81.3164C81.355 62.2613 81.3938 62.2653 81.4309 62.2751C81.4647 62.2897 81.4916 62.314 81.5072 62.3438L82.9304 64.5468C82.9584 64.5875 82.9821 64.6303 83.0013 64.6747Z" fill="#AFB1B8"></path>
      <path d="M88.2443 64.4969V65.8376H87.699V62.2632H88.915C89.1446 62.2594 89.3735 62.2857 89.5939 62.3413C89.7704 62.3848 89.9341 62.4607 90.0738 62.564C90.1949 62.6608 90.2883 62.7808 90.3464 62.9146C90.4108 63.0604 90.4423 63.2156 90.4391 63.3717C90.4415 63.5285 90.4072 63.684 90.3383 63.8289C90.2727 63.966 90.172 64.0884 90.0438 64.1866C89.9039 64.2941 89.7395 64.3749 89.5612 64.4234C89.3489 64.4824 89.1269 64.5104 88.9041 64.5063L88.2443 64.4969ZM88.2443 64.1131H88.9041C89.0475 64.1148 89.1901 64.0964 89.3267 64.0587C89.4394 64.0257 89.5433 63.9733 89.6321 63.9047C89.714 63.8391 89.7775 63.7581 89.8175 63.6678C89.8621 63.5723 89.8844 63.4701 89.8829 63.367C89.8893 63.2676 89.8706 63.1683 89.8282 63.0758C89.7859 62.9834 89.7208 62.9 89.6376 62.8317C89.4293 62.6904 89.1676 62.6219 88.9041 62.6398H88.2443V64.1131Z" fill="#AFB1B8"></path>
      <path d="M95.5731 65.8424H95.1423C95.0991 65.8438 95.0566 65.8321 95.0223 65.8092C94.9914 65.7869 94.9671 65.7585 94.9514 65.7263L94.5806 64.8616H92.7185L92.334 65.7263C92.3199 65.7579 92.2964 65.7857 92.2659 65.8069C92.2312 65.8311 92.1877 65.8437 92.1432 65.8424H91.7124L93.3483 62.2628H93.9154L95.5731 65.8424ZM92.8739 64.5134H94.4116L93.7627 63.0564C93.7131 62.9468 93.6721 62.8344 93.64 62.72L93.5773 62.9072C93.5582 62.964 93.5364 63.0162 93.5173 63.0588L92.8739 64.5134Z" fill="#AFB1B8"></path>
      <path d="M97.9288 62.2795C97.9614 62.295 97.9894 62.3169 98.0106 62.3434L100.396 65.0417C100.396 64.9991 100.396 64.9564 100.396 64.9161C100.396 64.8759 100.396 64.8356 100.396 64.7977V62.2629H100.884V65.8424H100.612C100.573 65.8434 100.535 65.8361 100.5 65.8211C100.466 65.804 100.437 65.7815 100.413 65.7548L98.0297 63.0589C98.0323 63.0999 98.0323 63.141 98.0297 63.1821C98.0297 63.2223 98.0297 63.2579 98.0297 63.291V65.8424H97.5416V62.2629H97.8306C97.8644 62.2621 97.8979 62.2677 97.9288 62.2795Z" fill="#AFB1B8"></path>
      <path d="M104.903 64.4188V65.8402H104.358V64.4188L102.85 62.2631H103.338C103.38 62.2609 103.422 62.2718 103.455 62.2938C103.485 62.3168 103.51 62.3441 103.529 62.3744L104.472 63.765C104.51 63.8242 104.543 63.8787 104.57 63.9308C104.598 63.9829 104.62 64.0327 104.639 64.0824L104.71 63.9284C104.736 63.8721 104.767 63.8175 104.802 63.765L105.732 62.3649C105.751 62.337 105.775 62.3115 105.803 62.2891C105.835 62.2646 105.877 62.2518 105.92 62.2536H106.414L104.903 64.4188Z" fill="#AFB1B8"></path>
      <path d="M82.7314 56.2561C82.9686 56.2822 83.2085 56.3035 83.4512 56.3225C87.13 54.8926 90.2422 52.5523 92.3986 49.5942C94.5551 46.636 95.6602 43.1912 95.5758 39.6904L91.5216 36.1678C92.3459 39.8951 91.9603 43.7482 90.4079 47.2959C88.8555 50.8437 86.1975 53.9461 82.7314 56.2561Z" fill="#AFB1B8"></path>
      <path d="M81.2837 56.0923L81.3928 56.1112C85.0966 53.8094 87.9205 50.5951 89.4993 46.8839C91.078 43.1727 91.3389 39.1353 90.2483 35.2939L84.4737 30.2767C86.8094 34.4008 87.7495 39.0162 87.1848 43.5862C86.6201 48.1562 84.5737 52.493 81.2837 56.0923Z" fill="#AFB1B8"></path>
      <path d="M100.868 43.8265C99.8868 47.6731 97.5041 51.1423 94.0735 53.7189C93.0716 54.4755 91.9909 55.1496 90.8454 55.7324C93.6389 55.019 96.2065 53.7578 98.3502 52.046C100.494 50.3341 102.157 48.2174 103.21 45.859L100.868 43.8265Z" fill="#AFB1B8"></path>
      <path d="M99.9491 43.2601L96.6146 40.3629C96.5509 43.666 95.4701 46.894 93.4846 49.7114C91.4991 52.5287 88.6814 54.8327 85.3243 56.3837H85.3406C86.0888 56.3835 86.8362 56.3447 87.5791 56.2676C90.7165 55.155 93.488 53.3849 95.6465 51.1152C97.8049 48.8455 99.2831 46.1469 99.9491 43.2601Z" fill="#AFB1B8"></path>
      <path d="M81.7663 28.1609L77.7883 24.7C74.2322 25.8939 71.1738 27.9928 69.0134 30.722C66.8529 33.4512 65.6912 36.6835 65.6801 39.9959V39.9959C65.6934 43.656 67.1113 47.2077 69.7093 50.0888C72.3073 52.9699 75.9371 55.016 80.0241 55.903C83.6725 52.041 85.8086 47.2687 86.1219 42.2798C86.4352 37.2908 84.9094 32.3449 81.7663 28.1609Z" fill="#AFB1B8"></path>
      <path d="M109.14 42.7273C109.126 38.3848 107.134 34.2238 103.6 31.1532C100.066 28.0826 95.2763 26.352 90.2783 26.3395C87.9688 26.3374 85.6789 26.7077 83.5248 27.4315L107.88 48.5926C108.714 46.7221 109.141 44.7333 109.14 42.7273Z" fill="#AFB1B8"></path>
    </g>
    <defs>
      <filter id="filter0_d_2286_1005" x="0" y="0" width="178" height="100" filterUnits="userSpaceOnUse" color-interpolation-filters="sRGB">
        <feFlood flood-opacity="0" result="BackgroundImageFix"></feFlood>
        <feColorMatrix in="SourceAlpha" type="matrix" values="0 0 0 0 0 0 0 0 0 0 0 0 0 0 0 0 0 0 127 0" result="hardAlpha"></feColorMatrix>
        <feOffset dy="4"></feOffset>
        <feGaussianBlur stdDeviation="2"></feGaussianBlur>
        <feComposite in2="hardAlpha" operator="out"></feComposite>
        <feColorMatrix type="matrix" values="0 0 0 0 0 0 0 0 0 0 0 0 0 0 0 0 0 0 0.25 0"></feColorMatrix>
        <feBlend mode="normal" in2="BackgroundImageFix" result="effect1_dropShadow_2286_1005"></feBlend>
        <feBlend mode="normal" in="SourceGraphic" in2="effect1_dropShadow_2286_1005" result="shape"></feBlend>
      </filter>
    </defs>
  </symbol>
  <symbol fill="none" xmlns="http://www.w3.org/2000/svg" viewBox="0 0 170 92" id="Client2">
    <rect x="0.5" y="0.5" width="169" height="91" rx="3.5" stroke="#AFB1B8"></rect>
    <path fill-rule="evenodd" clip-rule="evenodd" d="M82.1136 23.6477H81.977C81.7671 23.6349 81.5571 23.6299 81.3471 23.6248H81.3471H81.3269H80.8918C80.4946 23.6248 80.0898 23.6349 79.6876 23.6553C79.6573 23.6531 79.6269 23.6531 79.5966 23.6553C75.9522 23.8618 72.3817 24.7726 69.0805 26.3381L68.6479 26.5466V48.6877L69.6598 48.3444C70.5477 48.0393 71.4938 47.7646 72.4728 47.5103C75.1193 46.8309 77.8367 46.4699 80.568 46.4347V49.3438C80.2062 49.3463 79.8546 49.3565 79.503 49.3743H79.4195C77.3175 49.4896 75.2317 49.8098 73.1913 50.3304C70.6072 50.9774 68.1143 51.9488 65.7716 53.2217V24.825C68.2047 23.4059 70.8253 22.34 73.5556 21.6591C75.9527 21.0402 78.4169 20.7224 80.8918 20.7131H81.3193C81.8303 20.7258 82.3287 20.7487 82.7967 20.7843C84.0297 20.8709 85.2528 21.0658 86.4521 21.3667V24.23C85.2874 23.9586 84.1032 23.7801 82.9105 23.696C82.8863 23.6939 82.8621 23.6919 82.8379 23.6898C82.5911 23.6687 82.344 23.6477 82.1136 23.6477ZM87.1528 26.5745C87.7877 26.6228 88.4455 26.6457 89.1108 26.6457C91.7125 26.6362 94.3031 26.304 96.8239 25.6565C99.4068 25.0071 101.899 24.0349 104.241 22.7627V50.6533C101.807 52.0716 99.1853 53.1375 96.4546 53.8193C94.0571 54.4358 91.5931 54.7527 89.1184 54.7627C87.2433 54.7778 85.3737 54.5574 83.553 54.1066V26.0354C83.983 26.1346 84.4257 26.2261 84.876 26.3024C85.6147 26.427 86.3939 26.5186 87.1528 26.5745ZM101.347 26.7907L100.335 27.1314C99.4042 27.4442 98.4657 27.7239 97.5221 27.9731C94.7749 28.6791 91.9514 29.0412 89.1158 29.0513C88.4556 29.0513 87.8485 29.0335 87.2616 28.9954L86.4546 28.942V49.031V51.7188L87.1477 51.7799C87.7903 51.8358 88.4531 51.8638 89.1209 51.8638C91.3544 51.8543 93.5781 51.5664 95.7412 51.0068C97.5223 50.56 99.2552 49.9374 100.914 49.1479L101.347 48.9394V26.7907Z" fill="#AFB1B8"></path>
    <path d="M67.7371 62.9255C67.5917 62.7746 67.4163 62.6562 67.2224 62.5777C67.0284 62.4993 66.8203 62.4627 66.6114 62.4703C66.3888 62.4674 66.1678 62.5089 65.9613 62.5924C65.7719 62.6678 65.5998 62.7812 65.4553 62.9255C65.3125 63.0703 65.2013 63.2436 65.129 63.4341C65.0497 63.6338 65.0101 63.8472 65.0126 64.0622V67.8562C65.0036 68.1236 65.0546 68.3895 65.1619 68.6344C65.2514 68.8288 65.3807 69.0021 65.5413 69.1429C65.693 69.2706 65.871 69.3627 66.0625 69.4125C66.2469 69.4643 66.4376 69.4909 66.6291 69.4913C66.8404 69.4934 67.0495 69.4483 67.2413 69.3591C67.4309 69.2761 67.6028 69.1569 67.7473 69.0082C67.8881 68.8608 68.0005 68.6883 68.0786 68.4996C68.1597 68.3083 68.201 68.1023 68.2001 67.8944V67.4697H67.2084V67.8079C67.2114 67.9234 67.1916 68.0383 67.1502 68.1461C67.1179 68.2269 67.0688 68.2997 67.006 68.3597C66.9446 68.4094 66.8742 68.4465 66.7986 68.4691C66.7316 68.4914 66.6617 68.5034 66.5912 68.5047C66.5026 68.515 66.413 68.5016 66.3312 68.4659C66.2495 68.4301 66.1786 68.3734 66.1257 68.3012C66.0322 68.1488 65.9864 67.9716 65.9942 67.7927V64.2555C65.988 64.0593 66.0297 63.8646 66.1156 63.6884C66.1671 63.6083 66.2399 63.5444 66.3258 63.5039C66.4117 63.4635 66.5071 63.4481 66.6013 63.4595C66.6868 63.4565 66.7717 63.4743 66.8488 63.5115C66.9259 63.5487 66.9929 63.6042 67.044 63.6731C67.155 63.8188 67.213 63.9983 67.2084 64.1817V64.5098H68.19V64.1232C68.1919 63.8962 68.1507 63.671 68.0685 63.4595C67.9953 63.2608 67.8825 63.0791 67.7371 62.9255Z" fill="#AFB1B8"></path>
    <path d="M73.6289 62.8822C73.3127 62.6152 72.9136 62.4677 72.5007 62.4652C72.2987 62.4661 72.0984 62.5022 71.9087 62.572C71.7161 62.641 71.5384 62.7463 71.3851 62.8822C71.2208 63.0299 71.0897 63.2111 71.0005 63.4137C70.9006 63.6455 70.8515 63.8961 70.8563 64.1486V67.7875C70.8495 68.0435 70.8987 68.2979 71.0005 68.5326C71.0903 68.7283 71.2215 68.9019 71.3851 69.0412C71.5367 69.1819 71.7147 69.2909 71.9087 69.3616C72.0984 69.4314 72.2987 69.4675 72.5007 69.4684C72.7027 69.468 72.9031 69.4319 73.0926 69.3616C73.29 69.2899 73.4719 69.1812 73.6289 69.0412C73.7871 68.8993 73.9145 68.7261 74.0033 68.5326C74.1051 68.2979 74.1544 68.0435 74.1475 67.7875V64.1486C74.1524 63.8961 74.1032 63.6455 74.0033 63.4137C73.9151 63.2132 73.7878 63.0325 73.6289 62.8822ZM73.166 67.7875C73.1743 67.8845 73.1609 67.9821 73.1268 68.0732C73.0926 68.1643 73.0386 68.2466 72.9687 68.3139C72.8377 68.4238 72.6725 68.4839 72.5019 68.4839C72.3313 68.4839 72.1662 68.4238 72.0352 68.3139C71.9652 68.2466 71.9112 68.1643 71.8771 68.0732C71.8429 67.9821 71.8295 67.8845 71.8379 67.7875V64.1486C71.8295 64.0516 71.8429 63.954 71.8771 63.8629C71.9112 63.7718 71.9652 63.6896 72.0352 63.6222C72.1662 63.5124 72.3313 63.4522 72.5019 63.4522C72.6725 63.4522 72.8377 63.5124 72.9687 63.6222C73.0386 63.6896 73.0926 63.7718 73.1268 63.8629C73.1609 63.954 73.1743 64.0516 73.166 64.1486V67.7875Z" fill="#AFB1B8"></path>
    <path d="M81.3673 69.4125V62.5238H80.4136L79.1614 66.1703H79.1437L77.8813 62.5238H76.9377V69.4125H77.9218V65.2218H77.9395L78.9033 68.1843H79.3941L80.3655 65.2218H80.3832V69.4125H81.3673Z" fill="#AFB1B8"></path>
    <path d="M86.9581 63.0068C86.8065 62.8368 86.6153 62.7075 86.4015 62.6304C86.1712 62.5555 85.9302 62.5194 85.6881 62.5236H84.226V69.4124H85.2075V66.722H85.7134C86.0197 66.7359 86.3244 66.6712 86.5988 66.5338C86.822 66.4099 87.0081 66.2281 87.1377 66.0074C87.2512 65.8242 87.3277 65.6203 87.3628 65.4073C87.4014 65.1481 87.4192 64.8862 87.4159 64.6241C87.4255 64.2933 87.3932 63.9626 87.3198 63.64C87.2543 63.4016 87.1299 63.1838 86.9581 63.0068ZM86.4521 65.1072C86.4479 65.232 86.4168 65.3543 86.361 65.4658C86.3049 65.5717 86.2162 65.6565 86.1081 65.7074C85.9627 65.7724 85.8041 65.802 85.6451 65.7938H85.1974V63.4518H85.7033C85.8557 63.4443 86.0075 63.474 86.146 63.5383C86.2475 63.5965 86.3281 63.6855 86.3762 63.7926C86.4299 63.9136 86.4591 64.0441 86.4622 64.1765C86.4622 64.3215 86.4622 64.4741 86.4622 64.6343C86.4622 64.7945 86.4723 64.9598 86.4622 65.1072H86.4521Z" fill="#AFB1B8"></path>
    <path d="M91.6077 62.5238H90.8032L89.2854 69.4125H90.2669L90.5553 67.9326H91.8935L92.1819 69.4125H93.1635L91.6077 62.5238ZM90.702 66.9942L91.1852 64.4971H91.2029L91.6836 66.9942H90.702Z" fill="#AFB1B8"></path>
    <path d="M97.9497 66.6738H97.932L96.4496 62.5238H95.506V69.4125H96.4875V65.2701H96.5078L98.0079 69.4125H98.9312V62.5238H97.9497V66.6738Z" fill="#AFB1B8"></path>
    <path d="M103.948 62.5238L103.158 65.2625H103.138L102.349 62.5238H101.309L102.657 66.5009V69.4125H103.639V66.5009L104.987 62.5238H103.948Z" fill="#AFB1B8"></path>
    <path d="M65 71.3577H65.4731V72.6851H65.7943V71.3577H66.2649V71.0856H65V71.3577Z" fill="#AFB1B8"></path>
    <path d="M68.9767 71.0856L68.3569 72.6851H68.6984L68.83 72.3214H69.4675L69.6041 72.6851H69.9532L69.3182 71.0856H68.9767ZM68.9261 72.0519L69.1437 71.4594L69.3612 72.0519H68.9261Z" fill="#AFB1B8"></path>
    <path d="M72.9079 72.0953H73.2773V72.3012C73.1694 72.3877 73.0358 72.4352 72.8978 72.436C72.8333 72.4396 72.7689 72.4277 72.7099 72.4011C72.6509 72.3746 72.5991 72.3342 72.5588 72.2834C72.474 72.1617 72.4322 72.0149 72.4399 71.8664C72.4399 71.5104 72.5942 71.3324 72.9003 71.3324C72.9809 71.3244 73.0617 71.3456 73.128 71.3922C73.1944 71.4389 73.2419 71.5079 73.2621 71.5867L73.5783 71.5257C73.51 71.2129 73.2849 71.0552 72.9003 71.0552C72.6947 71.0497 72.4947 71.1234 72.3413 71.2612C72.2607 71.3408 72.1983 71.4371 72.1586 71.5433C72.1188 71.6496 72.1026 71.7633 72.1111 71.8766C72.1017 72.0954 72.1749 72.3097 72.316 72.4767C72.3943 72.5575 72.4892 72.6202 72.594 72.6606C72.6988 72.701 72.8111 72.7181 72.9231 72.7106C73.1734 72.7176 73.4165 72.6264 73.6011 72.4564V71.8257H72.9079V72.0953Z" fill="#AFB1B8"></path>
    <path d="M76.9226 71.0856H76.5988V72.6851H77.7194V72.413H76.9226V71.0856Z" fill="#AFB1B8"></path>
    <path d="M80.3175 71.0856H79.9937V72.6851H80.3175V71.0856Z" fill="#AFB1B8"></path>
    <path d="M83.6365 72.1536L82.9813 71.0856H82.6676V72.6851H82.9686V71.6399L83.6112 72.6851H83.9325V71.0856H83.6365V72.1536Z" fill="#AFB1B8"></path>
    <path d="M86.6368 71.9807H87.4337V71.7086H86.6368V71.3577H87.4944V71.0856H86.313V72.6851H87.5273V72.413H86.6368V71.9807Z" fill="#AFB1B8"></path>
    <path d="M93.9122 71.7162H93.2823V71.0856H92.9611V72.6851H93.2823V71.9858H93.9122V72.6851H94.2335V71.0856H93.9122V71.7162Z" fill="#AFB1B8"></path>
    <path d="M96.9302 71.9807H97.7296V71.7086H96.9302V71.3577H97.7903V71.0856H96.6089V72.6851H97.8206V72.413H96.9302V71.9807Z" fill="#AFB1B8"></path>
    <path d="M101.023 71.9807C101.302 71.9375 101.443 71.79 101.443 71.5357C101.451 71.4677 101.441 71.3987 101.413 71.3361C101.386 71.2735 101.342 71.2194 101.286 71.1797C101.141 71.107 100.98 71.0745 100.818 71.0856H100.14V72.6851H100.462V72.0163H100.525C100.593 72.0121 100.662 72.0243 100.725 72.0519C100.772 72.0809 100.811 72.1211 100.839 72.1689L101.188 72.6775H101.572L101.377 72.3647C101.291 72.2103 101.17 72.0787 101.023 71.9807ZM100.699 71.7595H100.462V71.3577H100.715C100.825 71.3488 100.936 71.3618 101.041 71.3959C101.064 71.4165 101.083 71.4422 101.095 71.471C101.107 71.4998 101.113 71.531 101.111 71.5623C101.11 71.5936 101.101 71.6241 101.087 71.6516C101.072 71.6792 101.051 71.703 101.026 71.7214C100.92 71.7537 100.81 71.7667 100.699 71.7595Z" fill="#AFB1B8"></path>
    <path d="M104.11 71.9807H104.906V71.7086H104.11V71.3577H104.97V71.0856H103.786V72.6851H105V72.413H104.11V71.9807Z" fill="#AFB1B8"></path>
  </symbol>
  <symbol fill="none" xmlns="http://www.w3.org/2000/svg" viewBox="0 0 170 92" id="Client1">
    <rect x="0.5" y="0.5" width="169" height="91" rx="3.5" stroke="#AFB1B8"></rect>
    <path fill-rule="evenodd" clip-rule="evenodd" d="M70 24.7131L77.0078 31.3473L64 31.3396V63.5269H98V51.2202L105 57.8469V24.7131H70ZM97.6924 50.4415L77.8226 31.6311H97.6924V50.4415ZM91.5231 58.8187H69.3801V37.1711H70.9453V57.3528H91.5231V58.8187ZM74.6089 67.8123L73.791 69.4968L72.9731 67.8123H72.2871L73.481 70.0583V71.3669H74.1011V70.0583L75.2925 67.8123H74.6089ZM75.6367 71.3669L75.9248 70.5393H77.3018L77.5923 71.3669H78.2368L76.8916 67.8123H76.3374L74.9946 71.3669H75.6367ZM76.6133 68.5667L77.1284 70.0413H76.0981L76.6133 68.5667ZM79.8701 69.9558C79.7806 70.0925 79.7358 70.2431 79.7358 70.4075C79.7358 70.707 79.8408 70.9503 80.0508 71.1375C80.2624 71.323 80.5439 71.4158 80.8955 71.4158C81.2471 71.4158 81.5498 71.3206 81.8037 71.1301L82.0039 71.3669H82.6924L82.1699 70.7493C82.375 70.4693 82.4775 70.1104 82.4775 69.6726H81.9624C81.9624 69.9119 81.9128 70.1292 81.8135 70.3245L81.1274 69.5139L81.3691 69.3381C81.54 69.2144 81.6629 69.0907 81.7378 68.967C81.8127 68.8417 81.8501 68.705 81.8501 68.5569C81.8501 68.3323 81.7671 68.1443 81.6011 67.9929C81.4367 67.8399 81.2251 67.7634 80.9663 67.7634C80.6798 67.7634 80.452 67.8448 80.2827 68.0076C80.1134 68.1687 80.0288 68.3884 80.0288 68.6667C80.0288 68.7807 80.0557 68.8987 80.1094 69.0208C80.1647 69.1428 80.2616 69.2909 80.3999 69.4651C80.1362 69.6539 79.9596 69.8175 79.8701 69.9558ZM81.4741 70.7419C81.3 70.8754 81.1128 70.9421 80.9126 70.9421C80.7352 70.9421 80.5936 70.8909 80.4878 70.7883C80.382 70.6858 80.3291 70.5523 80.3291 70.3879C80.3291 70.1975 80.4268 70.0282 80.6221 69.8801L80.6978 69.8264L81.4741 70.7419ZM80.8369 69.1672C80.6693 68.9605 80.5854 68.7888 80.5854 68.6521C80.5854 68.5333 80.6196 68.4348 80.688 68.3567C80.7563 68.2786 80.8483 68.2395 80.9639 68.2395C81.0713 68.2395 81.16 68.2729 81.23 68.3396C81.3 68.4047 81.335 68.4836 81.335 68.5764C81.335 68.7164 81.2845 68.8311 81.1836 68.9207L81.1079 68.9817L80.8369 69.1672ZM86.623 71.0984C86.8672 70.8852 87.0072 70.5889 87.043 70.2097H86.4277C86.3952 70.4636 86.3179 70.6451 86.1958 70.7542C86.0737 70.8632 85.8914 70.9177 85.6489 70.9177C85.3836 70.9177 85.1818 70.8168 85.0435 70.615C84.9067 70.4132 84.8384 70.1202 84.8384 69.7361V69.4211C84.8416 69.0419 84.9149 68.7546 85.0581 68.5593C85.203 68.3624 85.4097 68.2639 85.6782 68.2639C85.9093 68.2639 86.0843 68.3209 86.2031 68.4348C86.3236 68.5471 86.3984 68.731 86.4277 68.9866H87.043C87.0039 68.5976 86.8647 68.2965 86.6255 68.0833C86.3862 67.87 86.0705 67.7634 85.6782 67.7634C85.3869 67.7634 85.1297 67.8326 84.9067 67.9709C84.6854 68.1093 84.5153 68.3062 84.3965 68.5618C84.2777 68.8173 84.2183 69.1127 84.2183 69.448V69.78C84.2231 70.1072 84.2842 70.3945 84.4014 70.6418C84.5186 70.8892 84.6846 71.0805 84.8994 71.2156C85.1159 71.349 85.3657 71.4158 85.6489 71.4158C86.0542 71.4158 86.3789 71.31 86.623 71.0984ZM90.2534 70.6003C90.3739 70.3367 90.4341 70.0307 90.4341 69.6824V69.4846C90.4325 69.1379 90.3706 68.8344 90.2485 68.574C90.1265 68.3119 89.9531 68.1117 89.7285 67.9734C89.5055 67.8334 89.2492 67.7634 88.9595 67.7634C88.6698 67.7634 88.4126 67.8342 88.188 67.9758C87.965 68.1158 87.7917 68.3184 87.668 68.5837C87.5459 68.849 87.4849 69.155 87.4849 69.5017V69.7019C87.4865 70.0421 87.5483 70.3424 87.6704 70.6028C87.7941 70.8632 87.9683 71.0642 88.1929 71.2058C88.4191 71.3458 88.6763 71.4158 88.9644 71.4158C89.2557 71.4158 89.5129 71.3458 89.7358 71.2058C89.9604 71.0642 90.133 70.8624 90.2534 70.6003ZM89.5918 68.5911C89.7415 68.801 89.8164 69.1029 89.8164 69.4968V69.6824C89.8164 70.0828 89.7423 70.3871 89.5942 70.5955C89.4478 70.8038 89.2378 70.908 88.9644 70.908C88.6942 70.908 88.4826 70.8013 88.3296 70.5881C88.1782 70.3749 88.1025 70.073 88.1025 69.6824V69.4773C88.1058 69.0948 88.1823 68.7994 88.332 68.5911C88.4834 68.3811 88.6925 68.2761 88.9595 68.2761C89.2329 68.2761 89.4437 68.3811 89.5918 68.5911Z" fill="#AFB1B8"></path>
  </symbol>
  <symbol  xmlns="http://www.w3.org/2000/svg" viewBox="0 0 20 20" id="linkedin">
    <g clip-path="url(#clip0_2286_888)">
      <path d="M19.995 20V19.9992H20V12.6642C20 9.07587 19.2275 6.31171 15.0325 6.31171C13.0158 6.31171 11.6625 7.41837 11.11 8.46754H11.0517V6.64671H7.07416V19.9992H11.2158V13.3875C11.2158 11.6467 11.5458 9.96337 13.7017 9.96337C15.8258 9.96337 15.8575 11.95 15.8575 13.4992V20H19.995Z" ></path>
      <path d="M0.330017 6.64746H4.47668V20H0.330017V6.64746Z" ></path>
      <path d="M2.40167 0C1.07583 0 0 1.07583 0 2.40167C0 3.7275 1.07583 4.82583 2.40167 4.82583C3.7275 4.82583 4.80333 3.7275 4.80333 2.40167C4.8025 1.07583 3.72667 0 2.40167 0V0Z"></path>
    </g>
    <defs>
      <clipPath id="clip0_2286_888">
        <rect width="20" height="20" fill="white"></rect>
      </clipPath>
    </defs>
  </symbol>
  <symbol  xmlns="http://www.w3.org/2000/svg" viewBox="0 0 20 20" id="facebook">
    <g clip-path="url(#clip0_2286_894)">
      <path d="M13.3309 3.32083H15.1567V0.140833C14.8417 0.0975 13.7584 0 12.4967 0C9.86422 0 8.06088 1.65583 8.06088 4.69917V7.5H5.15588V11.055H8.06088V20H11.6226V11.0558H14.4101L14.8526 7.50083H11.6217V5.05167C11.6226 4.02417 11.8992 3.32083 13.3309 3.32083Z"></path>
    </g>
    <defs>
      <clipPath id="clip0_2286_894">
        <rect width="20" height="20" fill="white"></rect>
      </clipPath>
    </defs>
  </symbol>
  <symbol xmlns="http://www.w3.org/2000/svg" viewBox="0 0 20 20" id="twitter">
    <g clip-path="url(#clip0_2286_898)">
      <path d="M20 3.79875C19.2563 4.125 18.4637 4.34125 17.6375 4.44625C18.4875 3.93875 19.1363 3.14125 19.4412 2.18C18.6488 2.6525 17.7738 2.98625 16.8412 3.1725C16.0887 2.37125 15.0162 1.875 13.8462 1.875C11.5763 1.875 9.74875 3.7175 9.74875 5.97625C9.74875 6.30125 9.77625 6.61375 9.84375 6.91125C6.435 6.745 3.41875 5.11125 1.3925 2.6225C1.03875 3.23625 0.83125 3.93875 0.83125 4.695C0.83125 6.115 1.5625 7.37375 2.6525 8.1025C1.99375 8.09 1.3475 7.89875 0.8 7.5975C0.8 7.61 0.8 7.62625 0.8 7.6425C0.8 9.635 2.22125 11.29 4.085 11.6712C3.75125 11.7625 3.3875 11.8062 3.01 11.8062C2.7475 11.8062 2.4825 11.7913 2.23375 11.7362C2.765 13.36 4.2725 14.5538 6.065 14.5925C4.67 15.6838 2.89875 16.3412 0.98125 16.3412C0.645 16.3412 0.3225 16.3263 0 16.285C1.81625 17.4563 3.96875 18.125 6.29 18.125C13.835 18.125 17.96 11.875 17.96 6.4575C17.96 6.27625 17.9538 6.10125 17.945 5.9275C18.7588 5.35 19.4425 4.62875 20 3.79875Z" ></path>
    </g>
    <defs>
      <clipPath id="clip0_2286_898">
        <rect width="20" height="20" fill="white"></rect>
      </clipPath>
    </defs>
  </symbol>
  <symbol fill="none" xmlns="http://www.w3.org/2000/svg" viewBox="0 0 70 70" id="astronaut">
    <path d="M69.9433 9.8964C69.8056 9.47516 69.4416 9.16727 69.0018 9.10301L64.8228 8.49515L62.9526 4.70812C62.5606 3.91008 61.2527 3.91008 60.8608 4.70812L58.9906 8.49515L54.8114 9.10315C54.3716 9.16727 54.0076 9.47421 53.8687 9.89654C53.7323 10.3189 53.8453 10.7832 54.1639 11.0924L57.1891 14.0407L56.4752 18.2034C56.4005 18.6409 56.5802 19.0831 56.9384 19.3445C57.3012 19.6082 57.7748 19.6408 58.168 19.4331L61.9061 17.4672L65.6442 19.4331C65.8146 19.5229 66.0024 19.5672 66.1879 19.5672C66.4294 19.5672 66.671 19.4926 66.874 19.3444C67.2333 19.0831 67.413 18.6408 67.3372 18.2033L66.6233 14.0405L69.6485 11.0923C69.9654 10.7819 70.0798 10.3187 69.9433 9.8964ZM64.5556 12.7991C64.2815 13.0663 64.1555 13.4536 64.2208 13.8316L64.6385 16.2688L62.4499 15.1185C62.2795 15.0286 62.0929 14.9843 61.9061 14.9843C61.7195 14.9843 61.534 15.0286 61.3624 15.1185L59.1736 16.2688L59.5913 13.8316C59.6567 13.4536 59.5306 13.0675 59.2565 12.7991L57.4843 11.0725L59.932 10.7166C60.3124 10.6618 60.6402 10.4226 60.8106 10.0784L61.9049 7.86172L62.9992 10.0784C63.1696 10.4225 63.4974 10.6618 63.8778 10.7166L66.3255 11.0725L64.5556 12.7991Z" fill="#2196F3"></path>
    <path d="M57.167 44.8923H54.8336V47.2257H57.167V44.8923Z" fill="#2196F3"></path>
    <path d="M57.167 49.5591H54.8336V51.8925H57.167V49.5591Z" fill="#2196F3"></path>
    <path d="M59.5004 47.2257H57.167V49.5591H59.5004V47.2257Z" fill="#2196F3"></path>
    <path d="M54.8337 47.2257H52.5003V49.5591H54.8337V47.2257Z" fill="#2196F3"></path>
    <path d="M49.0002 57.7259H46.6668V60.0593H49.0002V57.7259Z" fill="#2196F3"></path>
    <path d="M49.0002 62.3926H46.6668V64.726H49.0002V62.3926Z" fill="#2196F3"></path>
    <path d="M51.3337 60.0593H49.0002V62.3927H51.3337V60.0593Z" fill="#2196F3"></path>
    <path d="M46.6668 60.0593H44.3334V62.3927H46.6668V60.0593Z" fill="#2196F3"></path>
    <path d="M35 53.0592H32.6666V55.3926H35V53.0592Z" fill="#2196F3"></path>
    <path d="M35 57.7259H32.6666V60.0593H35V57.7259Z" fill="#2196F3"></path>
    <path d="M37.3334 55.3925H35V57.7259H37.3334V55.3925Z" fill="#2196F3"></path>
    <path d="M32.6666 55.3925H30.3332V57.7259H32.6666V55.3925Z" fill="#2196F3"></path>
    <path d="M12.833 13.3918H10.4996V15.7252H12.833V13.3918Z" fill="#2196F3"></path>
    <path d="M12.833 18.0587H10.4996V20.3921H12.833V18.0587Z" fill="#2196F3"></path>
    <path d="M15.1663 15.7253H12.8329V18.0587H15.1663V15.7253Z" fill="#2196F3"></path>
    <path d="M10.4996 15.7253H8.1662V18.0587H10.4996V15.7253Z" fill="#2196F3"></path>
    <path d="M54.0635 30.9738C53.4348 30.1256 52.5119 29.5797 51.4642 29.4326C50.4119 29.2833 49.3735 29.5597 48.5335 30.2026L45.7952 32.3014L45.794 32.3026L41.6429 35.4025L38.6725 34.2195C43.9692 31.843 47.6712 26.545 47.6712 20.3942C47.6712 12.0314 40.8402 5.22739 32.4436 5.22739C24.047 5.22739 17.2162 12.0314 17.2162 20.3942C17.2162 23.4253 18.1226 26.244 19.6662 28.6158L13.6204 28.5633C13.6169 28.5633 13.6134 28.5633 13.6099 28.5633C13.5912 28.5633 13.5761 28.5726 13.5586 28.5738C13.4431 28.5785 13.3299 28.6019 13.2191 28.6415C13.1911 28.652 13.162 28.6579 13.1352 28.6706C13.1212 28.6765 13.1072 28.6776 13.0932 28.6846L6.02078 32.1764C6.01955 32.1764 6.01846 32.1764 6.01846 32.1775L1.87663 34.1693C1.8311 34.1891 1.78448 34.2159 1.73895 34.2463C0.0880496 35.3452 -0.474284 37.5036 0.429989 39.2676C0.911793 40.2056 1.73198 40.8964 2.74003 41.2125C3.12859 41.3337 3.52521 41.3933 3.91952 41.3933C4.55308 41.3933 5.18077 41.2382 5.75582 40.9314L8.79157 39.3167L13.7441 36.7593L16.7122 36.7418L4.80848 48.5884C4.80738 48.5896 4.80615 48.5896 4.80492 48.5907L1.8765 51.5074C1.18469 52.1958 0.80433 53.1092 0.80433 54.0835C0.80433 55.0565 1.18469 55.9723 1.8765 56.6619C2.58703 57.3689 3.52152 57.7236 4.45601 57.7236C5.39173 57.7236 6.32498 57.3689 7.03785 56.6619L9.91254 53.7988L13.7206 50.9556L15.6912 52.9179L11.8376 56.7552C11.8365 56.7564 11.8352 56.7564 11.834 56.7575L8.90559 59.6741C8.21378 60.3625 7.83343 61.276 7.83343 62.2502C7.83343 63.2233 8.21378 64.139 8.90559 64.8287C9.61613 65.5356 10.5518 65.8903 11.4863 65.8903C12.4208 65.8903 13.3565 65.5356 14.0682 64.8287L16.9977 61.912L21.6842 57.2453C21.6854 57.2441 21.6854 57.243 21.6865 57.2417L23.8951 55.0542L23.8869 55.046C23.9009 55.0321 23.9207 55.0273 23.9348 55.0122L35.2353 42.6349L42.8281 43.7153C42.8829 43.7235 42.9377 43.7269 42.9926 43.7269C43.1338 43.7269 43.2703 43.6931 43.4021 43.6429C43.4406 43.629 43.4744 43.6103 43.5106 43.5917C43.5526 43.5706 43.5969 43.559 43.6367 43.5322L50.6659 38.8655C50.6916 38.848 50.7056 38.82 50.73 38.8014C50.758 38.7792 50.7931 38.7699 50.8186 38.7453L53.5999 36.1401C55.0471 34.7841 55.2466 32.5628 54.0635 30.9738ZM4.66027 38.8722C4.28114 39.0752 3.85061 39.116 3.43881 38.9854C3.03042 38.8583 2.69915 38.5793 2.50541 38.2025C2.15308 37.5165 2.35721 36.6811 2.97436 36.2297L5.84796 34.8471L6.53977 36.869L6.8303 37.7183L4.66027 38.8722ZM12.3102 34.8741L8.92336 36.6241L8.36459 34.9907L7.96331 33.817L12.3968 31.6282L12.3102 34.8741ZM45.3402 20.3919C45.3402 22.4009 44.8607 24.2957 44.03 25.9908L34.8832 21.8362C34.7875 20.5821 34.1366 19.4842 33.1589 18.8005L36.3615 8.16853C41.5626 9.82298 45.3402 14.6752 45.3402 20.3919ZM19.5519 20.3919C19.5519 13.3159 25.3363 7.55834 32.4461 7.55834C32.9991 7.55834 33.5404 7.60496 34.0759 7.67264L30.9434 18.0714C30.9014 18.0701 30.8617 18.0585 30.8185 18.0585C28.5598 18.0585 26.7222 19.8902 26.7222 22.1419C26.7222 24.3936 28.5598 26.2254 30.8185 26.2254C32.3375 26.2254 33.65 25.3866 34.3582 24.1591L42.8073 27.9976C40.4564 31.1616 36.6938 33.2255 32.4459 33.2255C25.3363 33.2255 19.5519 27.4679 19.5519 20.3919ZM32.5814 22.1419C32.5814 23.1068 31.7903 23.892 30.8185 23.892C29.8467 23.892 29.0557 23.1068 29.0557 22.1419C29.0557 21.1771 29.8467 20.3919 30.8185 20.3919C31.7903 20.3919 32.5814 21.1771 32.5814 22.1419ZM5.39186 55.0075C4.87506 55.5196 4.03846 55.5185 3.52289 55.0087C3.27433 54.7601 3.13788 54.4324 3.13788 54.0835C3.13788 53.7358 3.27433 53.408 3.52289 53.1619L5.62743 51.0652L7.48944 52.9192L5.39186 55.0075ZM12.4222 63.1743C11.9054 63.6865 11.0677 63.6877 10.552 63.1756C10.3034 62.927 10.167 62.5993 10.167 62.2504C10.167 61.9027 10.3034 61.5748 10.552 61.3287L12.6579 59.231L13.5388 60.1073L14.5211 61.085L12.4222 63.1743ZM20.0384 55.5862C20.0371 55.5873 20.036 55.5873 20.0348 55.5885L16.1742 59.4386L15.2933 58.5623L14.311 57.5846L18.168 53.7451C18.168 53.7451 18.168 53.7451 18.168 53.744C18.1693 53.7428 18.1703 53.7428 18.1716 53.7417C18.2591 53.6542 18.3139 53.5492 18.3676 53.4454C18.3828 53.4151 18.4119 53.3894 18.4248 53.3579C18.461 53.2681 18.4668 53.1713 18.4808 53.0767C18.4878 53.0229 18.5112 52.9729 18.5112 52.9179C18.5112 52.8397 18.4832 52.764 18.4669 52.6869C18.4529 52.6169 18.4529 52.5457 18.426 52.4781C18.3817 52.3685 18.3058 52.2717 18.2265 52.1771C18.2044 52.1514 18.1962 52.1187 18.1717 52.0942C18.1717 52.0942 18.1717 52.0942 18.1705 52.0942C18.1693 52.0931 18.1693 52.0906 18.1682 52.0896L14.6529 48.5895C14.6156 48.5522 14.5678 48.537 14.5258 48.5056C14.464 48.4577 14.4045 48.4134 14.3356 48.3795C14.2692 48.3468 14.2015 48.327 14.1315 48.3083C14.0568 48.2872 13.9845 48.2709 13.9063 48.2651C13.8351 48.2604 13.7686 48.2674 13.6975 48.2756C13.6193 48.2849 13.5459 48.2954 13.47 48.3199C13.3965 48.3433 13.3312 48.3794 13.2636 48.4179C13.2204 48.4424 13.1714 48.4506 13.1305 48.4809L9.25136 51.3767L7.2808 49.4143L12.5286 44.1946L22.0674 53.576L20.0384 55.5862ZM34.9545 40.2372C34.9207 40.2326 34.8891 40.2454 34.8554 40.2431C34.7702 40.2385 34.6886 40.2443 34.6034 40.2583C34.5369 40.2699 34.4739 40.2828 34.4109 40.3049C34.3362 40.3306 34.2686 40.3656 34.1996 40.4076C34.1343 40.4472 34.0748 40.4892 34.0177 40.5417C33.9896 40.5662 33.9559 40.5779 33.9302 40.6058L23.6527 51.8621L14.1851 42.5507L20.3825 36.3859C20.8387 35.9309 20.8411 35.1924 20.386 34.735C20.1562 34.5052 19.8541 34.392 19.5519 34.3932V34.3921L14.6985 34.4213L14.7592 30.9049L21.5493 30.9633C24.3166 33.7937 28.176 35.5589 32.4461 35.5589C33.4027 35.5589 34.3361 35.4598 35.2449 35.2905C35.3324 35.3605 35.4186 35.4318 35.5284 35.4761L40.7996 37.5761L41.1332 39.2351L41.5228 41.1717L34.9545 40.2372ZM43.7944 40.6269L43.1096 37.219L46.2736 34.8564L47.102 35.9554L48.3445 37.6051L43.7944 40.6269ZM52.0055 34.4341L50.1726 36.1515L48.1356 33.4471L49.9544 32.053C50.2939 31.7917 50.7221 31.6855 51.1421 31.7403C51.5644 31.7998 51.9378 32.0203 52.1921 32.3621C52.6659 33.0003 52.5853 33.8905 52.0055 34.4341Z" fill="#212121"></path>
    <path d="M29.7545 40.5651L25.0668 35.8984C24.613 35.4446 23.8755 35.4446 23.4205 35.8984L18.734 40.5651C18.5147 40.7856 18.391 41.0819 18.391 41.3922C18.391 41.7026 18.5135 42.0001 18.734 42.2194L23.4205 46.8861C23.648 47.1124 23.9468 47.2256 24.2443 47.2256C24.5418 47.2256 24.8404 47.1124 25.0668 46.8861L29.7545 42.2194C29.9738 42.0001 30.0987 41.7026 30.0987 41.3922C30.0987 41.0819 29.9749 40.7844 29.7545 40.5651ZM24.2443 44.4128L21.2109 41.3922L24.2443 38.3717L27.2788 41.3922L24.2443 44.4128Z" fill="#212121"></path>
    <path d="M37.5468 11.0923L36.9833 13.3581C37.1385 13.3966 40.7844 14.3463 40.7844 18.0587H43.1178C43.1177 13.6461 39.4742 11.5718 37.5468 11.0923Z" fill="#212121"></path>
    <path d="M43.1178 20.3919H40.7844V22.7253H43.1178V20.3919Z" fill="#212121"></path>
  </symbol>

  <symbol fill="none" xmlns="http://www.w3.org/2000/svg" viewBox="0 0 70 70" id="diagram">
    <g clip-path="url(#clip0_2286_776)">
      <path d="M32.6496 32.7351H34.9817V43.2296H32.6496V32.7351Z" fill="#2196F3"></path>
      <path d="M41.978 37.3993H44.3101V43.2296H41.978V37.3993Z" fill="#2196F3"></path>
      <path d="M23.3211 40.8975H25.6532V43.2296H23.3211V40.8975Z" fill="#2196F3"></path>
      <path d="M16.3248 39.7314H18.6569V43.2295H16.3248V39.7314Z" fill="#2196F3"></path>
      <path d="M3.49817 61.8865H59.4689C61.4007 61.8865 62.967 60.3202 62.967 58.3883V53.7241C62.967 51.7922 61.4007 50.2259 59.4689 50.2259H58.3028V21.1468L64.9262 14.8724C66.4635 15.6303 68.3242 15.1702 69.3302 13.7815C70.3369 12.3934 70.1957 10.4821 68.9966 9.25681C67.7975 8.03154 65.8901 7.84877 64.4798 8.82409C63.0701 9.79998 62.569 11.6498 63.2933 13.2036L58.3028 17.9345V15.2442C58.3028 13.3124 56.7365 11.7461 54.8046 11.7461H8.16239C6.23054 11.7461 4.66422 13.3124 4.66422 15.2442V50.2259H3.49817C1.56632 50.2259 0 51.7922 0 53.7241V58.3883C0 60.3202 1.56632 61.8865 3.49817 61.8865ZM66.4652 10.58C67.1091 10.58 67.6312 11.1021 67.6312 11.7461C67.6312 12.39 67.1091 12.9121 66.4652 12.9121C65.8212 12.9121 65.2991 12.39 65.2991 11.7461C65.2991 11.1021 65.8212 10.58 66.4652 10.58ZM6.99634 15.2442C6.99634 14.6003 7.51844 14.0782 8.16239 14.0782H54.8046C55.4486 14.0782 55.9707 14.6003 55.9707 15.2442V20.1413L53.6386 22.3573V17.5763C53.6386 16.9324 53.1165 16.4103 52.4725 16.4103H10.4945C9.85055 16.4103 9.32845 16.9324 9.32845 17.5763V46.7277C9.32845 47.3717 9.85055 47.8938 10.4945 47.8938H52.4725C53.1165 47.8938 53.6386 47.3717 53.6386 46.7277V25.5651L55.9707 23.3554V50.2259H6.99634V15.2442ZM17.4908 30.403C15.9131 30.3984 14.5279 31.4495 14.1083 32.9702C13.6886 34.491 14.3383 36.104 15.6951 36.9091C17.0513 37.7142 18.7793 37.512 19.9129 36.4149L23.9662 38.4486C24.4371 38.6844 25.0081 38.5739 25.3583 38.1805L33.9745 28.4871L42.4443 34.8337C42.8987 35.1742 43.5329 35.1378 43.9452 34.7478L51.3065 27.7748V45.5617H11.6606V18.7424H51.3065V24.5619L43.0564 32.3747L34.5154 25.9716C34.0303 25.6084 33.3476 25.6767 32.9445 26.1293L24.2099 35.9571L20.9446 34.3242C20.9685 34.1841 20.9833 34.0429 20.989 33.9011C20.989 31.9693 19.4227 30.403 17.4908 30.403ZM18.6569 33.9011C18.6569 34.5451 18.1348 35.0672 17.4908 35.0672C16.8469 35.0672 16.3248 34.5451 16.3248 33.9011C16.3248 33.2572 16.8469 32.7351 17.4908 32.7351C18.1348 32.7351 18.6569 33.2572 18.6569 33.9011ZM25.6532 52.558H37.3138V53.7241C37.3138 54.368 36.7917 54.8901 36.1477 54.8901H26.8193C26.1753 54.8901 25.6532 54.368 25.6532 53.7241V52.558ZM2.33211 53.7241C2.33211 53.0801 2.85422 52.558 3.49817 52.558H23.3211V53.7241C23.3211 55.6559 24.8874 57.2223 26.8193 57.2223H36.1477C38.0796 57.2223 39.6459 55.6559 39.6459 53.7241V52.558H59.4689C60.1128 52.558 60.6349 53.0801 60.6349 53.7241V58.3883C60.6349 59.0323 60.1128 59.5544 59.4689 59.5544H3.49817C2.85422 59.5544 2.33211 59.0323 2.33211 58.3883V53.7241Z" fill="#212121"></path>
    </g>
    <defs>
      <clipPath id="clip0_2286_776">
        <rect width="70" height="70" fill="white"></rect>
      </clipPath>
    </defs>
  </symbol>
  <symbol fill="none" xmlns="http://www.w3.org/2000/svg" viewBox="0 0 70 70" id="clock">
    <g clip-path="url(#clip0_2286_766)">
      <path d="M68.4614 33.4715C68.4576 14.9819 53.4656 -0.00373771 34.9754 6.99302e-07C16.4858 0.00373911 1.50017 14.9963 1.50391 33.4859C1.50711 48.0502 10.9252 60.9413 24.7995 65.3713C24.9319 65.413 25.0697 65.4343 25.2081 65.4338C25.4719 65.4333 25.7304 65.3628 25.9573 65.2287C26.2527 65.0541 26.4732 64.7764 26.5768 64.449L35.0315 37.6521C37.3429 37.6404 39.2068 35.7568 39.1945 33.4459C39.1827 31.1345 37.2997 29.2706 34.9883 29.2824C34.3666 29.285 33.753 29.4282 33.1944 29.7011L22.0251 18.5302C21.4707 17.9951 20.5879 18.0106 20.0528 18.5644C19.5305 19.1054 19.5305 19.962 20.0528 20.503L31.2162 31.6792C30.3596 33.4277 30.8493 35.5383 32.3895 36.7303L24.3338 62.2647C8.41354 56.4002 0.261689 38.7405 6.12618 22.8203C11.9907 6.90002 29.6503 -1.25183 45.5706 4.61266C61.4909 10.4771 69.6427 28.1374 63.7782 44.0571C60.913 51.8351 55.0261 58.1252 47.4548 61.4989L46.5842 57.3989C46.4251 56.6454 45.6844 56.1636 44.9308 56.3233C44.6931 56.3741 44.4726 56.4857 44.291 56.6475L35.8978 64.1409C35.322 64.653 35.2708 65.5347 35.7835 66.1105C35.9501 66.2974 36.1637 66.4362 36.403 66.5126L47.1188 69.9327C47.8521 70.1682 48.6377 69.765 48.8732 69.0312C48.948 68.7994 48.9603 68.5527 48.9101 68.3145L48.0545 64.2915C60.4452 59.0678 68.4902 46.918 68.4614 33.4715ZM34.9829 32.0766C35.753 32.0766 36.3779 32.7014 36.3779 33.4715C36.3779 34.2422 35.753 34.8665 34.9829 34.8665C34.2123 34.8665 33.588 34.2422 33.588 33.4715C33.588 32.7014 34.2123 32.0766 34.9829 32.0766ZM39.5774 64.5916L44.3551 60.3298L45.6737 66.543L39.5774 64.5916Z" fill="#212121"></path>
      <path d="M33.5879 6.96732V9.75723C33.5879 10.5279 34.2122 11.1522 34.9828 11.1522C35.753 11.1522 36.3778 10.5279 36.3778 9.75723V6.96732C36.3778 6.1972 35.753 5.57236 34.9828 5.57236C34.2122 5.57236 33.5879 6.1972 33.5879 6.96732Z" fill="#2196F3"></path>
      <path d="M8.4787 32.0765C7.70805 32.0765 7.08374 32.7014 7.08374 33.4715C7.08374 34.2421 7.70805 34.8665 8.4787 34.8665H11.2686C12.0393 34.8665 12.6636 34.2421 12.6636 33.4715C12.6636 32.7014 12.0393 32.0765 11.2686 32.0765H8.4787Z" fill="#2196F3"></path>
      <path d="M61.4865 34.8665C62.2572 34.8665 62.8815 34.2421 62.8815 33.4715C62.8815 32.7014 62.2572 32.0765 61.4865 32.0765H58.6966C57.9265 32.0765 57.3016 32.7014 57.3016 33.4715C57.3016 34.2421 57.9265 34.8665 58.6966 34.8665H61.4865Z" fill="#2196F3"></path>
    </g>
    <defs>
      <clipPath id="clip0_2286_766">
        <rect width="70" height="70" fill="white"></rect>
      </clipPath>
    </defs>
  </symbol>
  <symbol fill="none" xmlns="http://www.w3.org/2000/svg" viewBox="0 0 70 70" id="antenna">
    <path d="M67.3163 48.3385L48.8468 29.7337L50.8966 19.6373C51.4256 19.8438 51.9879 19.9517 52.5556 19.9558H52.5696C55.1777 19.9866 57.3169 17.8974 57.3479 15.2893C57.3788 12.6812 55.2894 10.542 52.6813 10.5111C50.0732 10.4803 47.934 12.5695 47.9031 15.1776C47.8965 15.7357 47.9888 16.2905 48.176 16.8163L37.326 18.1405L19.6276 0.35C19.4105 0.128479 19.1141 0.00247917 18.804 0C18.4977 0.00160417 18.2044 0.123521 17.9873 0.3395L14.6786 3.6295C14.2232 4.08508 14.2232 4.82358 14.6786 5.27917L16.459 7.08517C9.56162 19.7681 11.8019 35.4741 21.9703 45.7228C22.0636 45.8121 22.1718 45.8843 22.29 45.9363C22.2165 46.3311 22.1781 46.7317 22.1756 47.1333V60.6667H8.17562C4.95562 60.6705 2.34608 63.28 2.34229 66.5V68.8333C2.34229 69.4776 2.86466 70 3.50895 70H57.1756C57.8199 70 58.3423 69.4776 58.3423 68.8333V66.5C58.3385 63.28 55.729 60.6705 52.509 60.6667H38.509V54.6688C40.7021 55.1288 42.9367 55.3633 45.1776 55.3688C50.5548 55.363 55.8464 54.0225 60.5776 51.4675L62.3673 53.2677C62.5844 53.4892 62.8808 53.6152 63.191 53.6177C63.4972 53.6161 63.7905 53.4941 64.0076 53.2782L67.3163 49.9882C67.7717 49.5326 67.7717 48.7941 67.3163 48.3385ZM50.9246 13.6348C51.8383 12.726 53.3157 12.7301 54.2244 13.6437C55.1332 14.5574 55.1291 16.0348 54.2155 16.9435C53.7781 17.3785 53.1864 17.6226 52.5695 17.6225H52.5625C51.2739 17.6158 50.2345 16.5658 50.2412 15.2771C50.2445 14.6602 50.4918 14.0699 50.9291 13.6348H50.9246ZM48.1783 21.301L46.8693 27.7445L44.298 25.158L48.1783 21.301ZM46.853 19.3282L42.653 23.5037L39.4038 20.237L46.853 19.3282ZM52.509 63C54.442 63 56.009 64.567 56.009 66.5V67.6667H4.67562V66.5C4.67562 64.567 6.2426 63 8.17562 63H52.509ZM36.1756 58.3333V60.6667H24.509V58.3333H36.1756ZM24.509 56V47.1333C24.509 44.303 27.1258 42 30.3423 42C33.5588 42 36.1756 44.303 36.1756 47.1333V56H24.509ZM38.509 52.29V47.1333C38.509 43.0162 34.8456 39.6667 30.3423 39.6667C27.4306 39.622 24.7079 41.1041 23.165 43.5738C14.2887 34.2249 12.2899 20.2875 18.1805 8.82073L58.872 49.7455C52.5886 52.9419 45.3857 53.8418 38.509 52.29ZM63.2038 50.7943L61.56 49.1412L18.7923 6.11567L17.1415 4.46133L18.7923 2.81633L36.15 20.272C36.1581 20.272 36.1628 20.2872 36.171 20.293L64.8593 49.1493L63.2038 50.7943Z" fill="#212121"></path>
    <path d="M30.3528 44.3333H30.3423C28.4093 44.3304 26.84 45.895 26.837 47.8281C26.8341 49.7611 28.3988 51.3304 30.3318 51.3333H30.3423C32.2753 51.3362 33.8446 49.7716 33.8475 47.8386C33.8505 45.9055 32.2858 44.3362 30.3528 44.3333ZM31.1695 48.6605C30.9498 48.8789 30.6522 49.0012 30.3423 49C29.698 48.9966 29.1784 48.4716 29.1817 47.8273C29.1834 47.5189 29.307 47.2237 29.5256 47.0062C29.7428 46.7902 30.036 46.6683 30.3423 46.6667C30.9866 46.67 31.5062 47.195 31.5028 47.8393C31.5012 48.1477 31.3776 48.4429 31.159 48.6605H31.1695Z" fill="#2196F3"></path>
  </symbol>
  <symbol xmlns="http://www.w3.org/2000/svg" viewBox="0 0 16 12" id="envelope">
    <path d="M14.5 0H1.50001C0.672854 0 0 0.672853 0 1.50001V10.5C0 11.3271 0.672854 12 1.50001 12H14.5C15.3271 12 16 11.3271 16 10.5V1.50001C16 0.672853 15.3271 0 14.5 0ZM14.5 0.999994C14.5679 0.999994 14.6325 1.01409 14.6916 1.0387L8 6.83838L1.30833 1.0387C1.36742 1.01412 1.43204 0.999994 1.49998 0.999994H14.5ZM14.5 11H1.50001C1.22414 11 0.999996 10.7759 0.999996 10.5V2.09521L7.67236 7.87792C7.76661 7.95944 7.8833 7.99999 8 7.99999C8.1167 7.99999 8.23339 7.95948 8.32764 7.87792L15 2.09521V10.5C15 10.7759 14.7759 11 14.5 11Z" ></path>
  </symbol>
    <symbol  xmlns="http://www.w3.org/2000/svg" viewBox="0 0 20 20" id="instagram">
    <g clip-path="url(#clip0_2286_904)">
      <path d="M19.9804 5.88005C19.9336 4.81738 19.7617 4.0868 19.5156 3.45374C19.2616 2.78176 18.8709 2.18014 18.359 1.68002C17.8589 1.1721 17.2533 0.777435 16.5891 0.527447C15.9524 0.281274 15.2256 0.109427 14.163 0.0625732C13.0924 0.0117516 12.7525 0 10.0371 0C7.32173 0 6.98185 0.0117516 5.91521 0.0586052C4.85253 0.105459 4.12195 0.277459 3.48904 0.523479C2.81692 0.777435 2.2153 1.16814 1.71517 1.68002C1.20726 2.18014 0.812743 2.78573 0.562603 3.44992C0.31643 4.0868 0.144583 4.81341 0.0977294 5.87609C0.0469078 6.9467 0.0351562 7.28658 0.0351562 10.002C0.0351562 12.7173 0.0469078 13.0572 0.0937614 14.1239C0.140615 15.1865 0.312615 15.9171 0.558787 16.5502C0.812743 17.2221 1.20726 17.8238 1.71517 18.3239C2.2153 18.8318 2.82088 19.2265 3.48508 19.4765C4.12195 19.7226 4.84856 19.8945 5.91139 19.9413C6.97788 19.9883 7.31791 19.9999 10.0333 19.9999C12.7487 19.9999 13.0885 19.9883 14.1552 19.9413C15.2179 19.8945 15.9484 19.7226 16.5813 19.4765C17.9254 18.9568 18.9881 17.8941 19.5078 16.5502C19.7538 15.9133 19.9258 15.1865 19.9727 14.1239C20.0195 13.0572 20.0313 12.7173 20.0313 10.002C20.0313 7.28658 20.0273 6.9467 19.9804 5.88005ZM18.1794 14.0457C18.1364 15.0225 17.9723 15.5499 17.8356 15.9015C17.4995 16.7728 16.808 17.4643 15.9367 17.8004C15.5851 17.9372 15.0538 18.1012 14.0809 18.1441C13.026 18.1911 12.7096 18.2027 10.0411 18.2027C7.37255 18.2027 7.05221 18.1911 6.00113 18.1441C5.02438 18.1012 4.49693 17.9372 4.1453 17.8004C3.71171 17.6402 3.31704 17.3862 2.9967 17.0541C2.6646 16.7298 2.41065 16.3391 2.2504 15.9055C2.11365 15.5539 1.94959 15.0225 1.90671 14.0497C1.8597 12.9948 1.8481 12.6783 1.8481 10.0097C1.8481 7.34122 1.8597 7.02087 1.90671 5.96995C1.94959 4.99319 2.11365 4.46575 2.2504 4.11412C2.41065 3.68038 2.6646 3.28586 3.00067 2.96536C3.32483 2.63327 3.71553 2.37931 4.14927 2.21921C4.5009 2.08247 5.03231 1.9184 6.0051 1.87537C7.05999 1.82851 7.37652 1.81676 10.0449 1.81676C12.7174 1.81676 13.0337 1.82851 14.0848 1.87537C15.0616 1.9184 15.589 2.08247 15.9407 2.21921C16.3742 2.37931 16.7689 2.63327 17.0893 2.96536C17.4213 3.28967 17.6753 3.68038 17.8356 4.11412C17.9723 4.46575 18.1364 4.99701 18.1794 5.96995C18.2263 7.02484 18.238 7.34122 18.238 10.0097C18.238 12.6783 18.2263 12.9908 18.1794 14.0457Z" ></path>
      <path d="M10.0371 4.8642C7.20074 4.8642 4.89941 7.16537 4.89941 10.0019C4.89941 12.8385 7.20074 15.1396 10.0371 15.1396C12.8737 15.1396 15.1749 12.8385 15.1749 10.0019C15.1749 7.16537 12.8737 4.8642 10.0371 4.8642ZM10.0371 13.3346C8.19702 13.3346 6.70442 11.8422 6.70442 10.0019C6.70442 8.16165 8.19702 6.66921 10.0371 6.66921C11.8774 6.66921 13.3698 8.16165 13.3698 10.0019C13.3698 11.8422 11.8774 13.3346 10.0371 13.3346Z" ></path>
      <path d="M16.5775 4.6611C16.5775 5.32346 16.0404 5.86052 15.3779 5.86052C14.7155 5.86052 14.1785 5.32346 14.1785 4.6611C14.1785 3.99858 14.7155 3.46167 15.3779 3.46167C16.0404 3.46167 16.5775 3.99858 16.5775 4.6611Z"></path>
    </g>
    <defs>
      <clipPath id="clip0_2286_904">
        <rect width="20" height="20" fill="white"></rect>
      </clipPath>
    </defs>
  </symbol>
  <symbol  xmlns="http://www.w3.org/2000/svg" viewBox="0 0 10 16" id="smartphone">
    <path d="M8.5 0H1.5C0.672848 0 0 0.672848 0 1.5V14.5C0 15.3272 0.672848 16 1.5 16H8.5C9.32715 16 10 15.3272 10 14.5V1.5C10 0.672848 9.32715 0 8.5 0ZM1.5 1H8.5C8.77588 1 9 1.22412 9 1.5V12H1V1.5C1 1.22412 1.22412 1 1.5 1ZM8.5 15H1.5C1.22412 15 1 14.7759 1 14.5V13H9V14.5C9 14.7759 8.77588 15 8.5 15Z" ></path>
    <path d="M2.35355 13.7389C2.54882 13.9213 2.54882 14.2169 2.35355 14.3992C2.15828 14.5816 1.84172 14.5816 1.64645 14.3992C1.45118 14.2169 1.45118 13.9213 1.64645 13.7389C1.84172 13.5566 2.15828 13.5566 2.35355 13.7389Z" ></path>
  </symbol>
  <symbol fill="none" xmlns="http://www.w3.org/2000/svg" viewBox="0 0 170 92" id="Client6">
    <rect x="0.5" y="0.5" width="169" height="91" rx="3.5" stroke="#AFB1B8"></rect>
    <g filter="url(#filter0_d_2286_1045)">
      <g filter="url(#filter1_d_2286_1045)">
        <path d="M85.425 43.4082C84.9819 42.8184 84.7699 42.1213 84.8203 41.4196V38.5364C84.8203 37.6526 85.0207 36.9809 85.4216 36.5214C85.8224 36.0619 86.511 35.8331 87.4871 35.8351C88.4044 35.8351 89.0555 36.0306 89.4405 36.4217C89.8605 36.9207 90.0648 37.5309 90.018 38.1463V38.8239H88.3772V38.1375C88.383 37.9129 88.3671 37.6882 88.3296 37.4659C88.306 37.3138 88.2234 37.1732 88.0952 37.067C87.9267 36.9525 87.7145 36.897 87.5007 36.9115C87.2759 36.897 87.0529 36.9556 86.8756 37.0758C86.7327 37.1935 86.6374 37.3477 86.6038 37.5157C86.5567 37.7511 86.5351 37.9897 86.5393 38.2285V41.7276C86.5134 42.0652 86.5858 42.403 86.7499 42.7102C86.8315 42.8141 86.9448 42.8965 87.0774 42.9483C87.2099 43.0001 87.3564 43.0192 87.5007 43.0035C87.7109 43.0184 87.9195 42.9615 88.0816 42.8451C88.2153 42.7305 88.3013 42.581 88.3262 42.4198C88.3645 42.1877 88.3816 41.9533 88.3772 41.7188V41.009H90.018V41.6572C90.0641 42.2988 89.8648 42.9356 89.4507 43.4698C89.0736 43.8981 88.4315 44.1122 87.4871 44.1122C86.5427 44.1122 85.8292 43.8834 85.425 43.4082Z" fill="#AFB1B8"></path>
        <path d="M92.2569 43.4376C91.8424 42.9888 91.6352 42.3347 91.6352 41.4695V38.4367C91.6352 37.5803 91.8424 36.9321 92.2569 36.4921C92.6713 36.0521 93.3644 35.8331 94.3359 35.8351C95.3007 35.8351 95.9904 36.0541 96.4048 36.4921C96.8193 36.9321 97.0299 37.5803 97.0299 38.4367V41.4695C97.0299 42.3259 96.8193 42.9829 96.398 43.4346C95.9768 43.8863 95.2906 44.1122 94.3359 44.1122C93.3813 44.1122 92.6747 43.8834 92.2569 43.4376ZM95.1003 42.7102C95.2487 42.4291 95.3163 42.1212 95.2974 41.8127V38.0994C95.3164 37.7969 95.2499 37.4949 95.1037 37.2195C95.0205 37.1134 94.9043 37.0296 94.7686 36.9777C94.6328 36.9259 94.4829 36.908 94.3359 36.9262C94.1885 36.9085 94.0383 36.9265 93.9021 36.9783C93.7659 37.0301 93.6491 37.1136 93.5648 37.2195C93.4154 37.4941 93.3477 37.7965 93.3678 38.0994V41.8303C93.3471 42.1389 93.4148 42.4471 93.5648 42.7278C93.6604 42.8224 93.7785 42.8982 93.9109 42.9502C94.0433 43.0021 94.1871 43.029 94.3326 43.029C94.478 43.029 94.6218 43.0021 94.7542 42.9502C94.8866 42.8982 95.0047 42.8224 95.1003 42.7278V42.7102Z" fill="#AFB1B8"></path>
        <path d="M99.0035 35.9236H100.77L102.098 41.5192L103.457 35.9236H105.176L105.35 44.0003H104.079L103.943 38.3871L102.632 44.0003H101.613L100.254 38.3665L100.128 44.0003H98.8439L99.0035 35.9236Z" fill="#AFB1B8"></path>
        <path d="M107.33 35.9236H110.082C111.667 35.9236 112.46 36.688 112.46 38.217C112.46 39.6814 111.625 40.4126 109.956 40.4106H109.019V44.0003H107.32L107.33 35.9236ZM109.681 39.3754C109.849 39.3938 110.019 39.3805 110.181 39.3364C110.342 39.2924 110.49 39.2186 110.615 39.1203C110.81 38.8475 110.896 38.5271 110.86 38.2082C110.869 37.9618 110.841 37.7154 110.778 37.475C110.754 37.3947 110.712 37.3194 110.653 37.2534C110.595 37.1874 110.522 37.1322 110.439 37.0908C110.203 36.9932 109.942 36.9488 109.681 36.9618H109.022V39.3754H109.681Z" fill="#AFB1B8"></path>
        <path d="M114.909 35.9236H116.734L118.606 44.0003H117.022L116.652 42.138H115.025L114.644 44.0003H113.038L114.909 35.9236ZM116.469 41.2025L115.833 37.8123L115.198 41.2025H116.469Z" fill="#AFB1B8"></path>
        <path d="M120.117 35.9236H121.306L123.582 40.5309V35.9236H124.992V44.0003H123.861L121.571 39.1906V44.0003H120.114L120.117 35.9236Z" fill="#AFB1B8"></path>
        <path d="M128.294 40.9208L126.402 35.9349H127.996L129.151 39.1376L130.234 35.9349H131.794L129.925 40.9208V44.0003H128.294V40.9208Z" fill="#AFB1B8"></path>
        <path d="M88.0477 47.5316V47.954H86.6617V51.2359H86.0807V47.954H84.6879V47.5316H88.0477Z" fill="#AFB1B8"></path>
        <path d="M92.3927 51.2362H91.9442C91.8987 51.2386 91.8538 51.2261 91.8185 51.201C91.7846 51.1795 91.7587 51.15 91.7438 51.116L91.3429 50.2361H89.4201L89.0192 51.116C89.0078 51.1528 88.9869 51.1868 88.958 51.2157C88.9225 51.2402 88.8778 51.2527 88.8324 51.2509H88.3839L90.0825 47.5468H90.6737L92.3927 51.2362ZM89.5797 49.8607H91.1833L90.5038 48.3533C90.4537 48.2393 90.4117 48.1227 90.3781 48.0043C90.3543 48.0747 90.3339 48.1421 90.3136 48.2008L90.2524 48.3562L89.5797 49.8607Z" fill="#AFB1B8"></path>
        <path d="M95.3211 50.8724C95.4275 50.8772 95.5341 50.8772 95.6404 50.8724C95.7323 50.8642 95.8232 50.8495 95.9122 50.8284C95.9954 50.8107 96.0772 50.7882 96.1568 50.7609C96.2316 50.7345 96.3063 50.7022 96.3844 50.67V49.8369H95.705C95.6882 49.8378 95.6714 49.8356 95.6556 49.8305C95.6398 49.8255 95.6254 49.8177 95.6133 49.8076C95.6021 49.7993 95.5933 49.7889 95.5874 49.7772C95.5815 49.7655 95.5787 49.7529 95.5793 49.7401V49.4556H96.8974V50.8753C96.7898 50.9417 96.6762 51.0006 96.5577 51.0513C96.4366 51.1029 96.3104 51.1451 96.1806 51.1774C96.0417 51.2127 95.8996 51.2382 95.7559 51.2537C95.5912 51.2695 95.4257 51.2773 95.26 51.2771C94.967 51.2793 94.6763 51.2325 94.4038 51.1393C94.1495 51.051 93.9184 50.9193 93.7244 50.7521C93.5353 50.5832 93.3864 50.3839 93.2862 50.1655C93.1791 49.9199 93.1261 49.6593 93.1299 49.397C93.1263 49.133 93.1781 48.8706 93.2828 48.6226C93.3805 48.4031 93.5297 48.2033 93.721 48.036C93.9149 47.8693 94.1461 47.7386 94.4005 47.6517C94.6914 47.5572 95.0001 47.5105 95.3109 47.5138C95.4691 47.5137 95.627 47.5245 95.7831 47.5461C95.9212 47.5655 96.0567 47.597 96.1874 47.64C96.3062 47.6785 96.4201 47.7277 96.5271 47.7866C96.6312 47.8445 96.7301 47.9092 96.8227 47.9802L96.6596 48.209C96.6468 48.2299 96.6278 48.2475 96.6045 48.2598C96.5812 48.2722 96.5545 48.279 96.5271 48.2794C96.4895 48.2784 96.453 48.2682 96.4218 48.2501C96.3708 48.2266 96.3165 48.1973 96.2553 48.1621C96.1831 48.123 96.1069 48.0896 96.0277 48.0624C95.9265 48.0273 95.8219 47.9998 95.7152 47.9802C95.5729 47.9576 95.4284 47.9468 95.2837 47.948C95.0596 47.9458 94.8371 47.9807 94.6281 48.0506C94.439 48.1161 94.2686 48.2162 94.1287 48.3439C93.9879 48.4771 93.8803 48.6339 93.8127 48.8045C93.661 49.2056 93.661 49.6381 93.8127 50.0393C93.8871 50.2135 94.0028 50.3724 94.1525 50.5057C94.2918 50.6328 94.4609 50.7328 94.6485 50.799C94.8645 50.8631 95.0934 50.888 95.3211 50.8724Z" fill="#AFB1B8"></path>
        <path d="M100.736 50.8136H102.591V51.2359H100.169V47.5316H100.75L100.736 50.8136Z" fill="#AFB1B8"></path>
        <path d="M104.521 51.2359H103.94V47.5316H104.521V51.2359Z" fill="#AFB1B8"></path>
        <path d="M106.681 47.5492C106.716 47.5662 106.746 47.5892 106.77 47.6167L109.253 50.409C109.25 50.3651 109.25 50.321 109.253 50.277C109.253 50.236 109.253 50.1949 109.253 50.1568V47.517H109.759V51.2362H109.467C109.424 51.2392 109.38 51.2321 109.341 51.2156C109.306 51.1972 109.275 51.1733 109.25 51.1452L106.77 48.3558C106.77 48.3998 106.77 48.4409 106.77 48.482C106.77 48.523 106.77 48.5612 106.77 48.5964V51.2362H106.284V47.5316H106.586C106.619 47.5317 106.651 47.5377 106.681 47.5492Z" fill="#AFB1B8"></path>
        <path d="M114.036 47.5316V47.9393H111.978V49.1624H113.646V49.5554H111.978V50.8195H114.036V51.2272H111.38V47.5316H114.036Z" fill="#AFB1B8"></path>
        <path d="M53.1617 24.6555L78.9568 30.9788V53.1368L53.1617 46.8164V24.6555ZM51.5073 22.7667V47.8928L80.6079 55.0285V29.9054L51.5073 22.7667Z" fill="#AFB1B8"></path>
        <path d="M67.1039 66.6922L38 59.5505V34.4271L67.1039 41.5659V66.6922Z" fill="#AFB1B8"></path>
        <path d="M51.9897 24.371L77.4484 30.615L66.6215 39.9649L41.1594 33.7179L51.9897 24.371ZM51.5073 22.7667L38 34.4277L67.1039 41.5662L80.6078 29.9053L51.5073 22.7667Z" fill="#AFB1B8"></path>
        <path d="M68.7414 65.2788L80.6078 55.0315L68.7414 52.1193V65.2788Z" fill="#AFB1B8"></path>
      </g>
    </g>
    <defs>
      <filter id="filter0_d_2286_1045" x="34" y="22.7667" width="101.794" height="51.9255" filterUnits="userSpaceOnUse" color-interpolation-filters="sRGB">
        <feFlood flood-opacity="0" result="BackgroundImageFix"></feFlood>
        <feColorMatrix in="SourceAlpha" type="matrix" values="0 0 0 0 0 0 0 0 0 0 0 0 0 0 0 0 0 0 127 0" result="hardAlpha"></feColorMatrix>
        <feOffset dy="4"></feOffset>
        <feGaussianBlur stdDeviation="2"></feGaussianBlur>
        <feComposite in2="hardAlpha" operator="out"></feComposite>
        <feColorMatrix type="matrix" values="0 0 0 0 0 0 0 0 0 0 0 0 0 0 0 0 0 0 0.25 0"></feColorMatrix>
        <feBlend mode="normal" in2="BackgroundImageFix" result="effect1_dropShadow_2286_1045"></feBlend>
        <feBlend mode="normal" in="SourceGraphic" in2="effect1_dropShadow_2286_1045" result="shape"></feBlend>
      </filter>
      <filter id="filter1_d_2286_1045" x="34" y="22.7667" width="101.794" height="51.9255" filterUnits="userSpaceOnUse" color-interpolation-filters="sRGB">
        <feFlood flood-opacity="0" result="BackgroundImageFix"></feFlood>
        <feColorMatrix in="SourceAlpha" type="matrix" values="0 0 0 0 0 0 0 0 0 0 0 0 0 0 0 0 0 0 127 0" result="hardAlpha"></feColorMatrix>
        <feOffset dy="4"></feOffset>
        <feGaussianBlur stdDeviation="2"></feGaussianBlur>
        <feComposite in2="hardAlpha" operator="out"></feComposite>
        <feColorMatrix type="matrix" values="0 0 0 0 0 0 0 0 0 0 0 0 0 0 0 0 0 0 0.25 0"></feColorMatrix>
        <feBlend mode="normal" in2="BackgroundImageFix" result="effect1_dropShadow_2286_1045"></feBlend>
        <feBlend mode="normal" in="SourceGraphic" in2="effect1_dropShadow_2286_1045" result="shape"></feBlend>
      </filter>
    </defs>
  </symbol>
</svg>